<svg width="1363" height="331" viewBox="0 0 1363 331" fill="none" xmlns="http://www.w3.org/2000/svg">
<path d="M387.28 114.763C394.851 119.414 400.728 125.988 404.912 134.487C409.095 142.988 411.188 152.815 411.188 163.972C411.188 174.998 409.161 184.66 405.111 192.959C401.058 201.261 395.315 207.671 387.878 212.185C380.438 216.701 371.806 218.958 361.979 218.958C355.604 218.958 349.826 217.763 344.647 215.372C339.467 212.982 335.016 209.529 331.298 205.013V256.213H291.055V109.185H331.298V121.736C334.884 117.222 339.199 113.768 344.247 111.376C349.294 108.985 354.873 107.79 360.982 107.79C370.943 107.79 379.71 110.115 387.28 114.762V114.763ZM365.166 180.408C368.752 175.96 370.545 170.148 370.545 162.976C370.545 155.804 368.751 149.995 365.166 145.544C361.58 141.096 356.799 138.87 350.822 138.87C344.976 138.87 340.263 141.095 336.677 145.544C333.091 149.995 331.298 155.804 331.298 162.976C331.298 170.148 333.092 175.96 336.677 180.408C340.263 184.859 344.976 187.082 350.822 187.082C356.799 187.082 361.58 184.859 365.166 180.408Z" fill="#626981"/>
<path d="M521.358 114.763C528.929 119.414 534.806 125.988 538.99 134.487C543.173 142.988 545.266 152.815 545.266 163.972C545.266 174.998 543.239 184.66 539.189 192.959C535.136 201.261 529.393 207.671 521.956 212.185C514.516 216.701 505.884 218.958 496.058 218.958C489.682 218.958 483.905 217.763 478.725 215.372C473.545 212.982 469.094 209.529 465.377 205.013V256.213H425.133V109.185H465.377V121.736C468.963 117.222 473.277 113.768 478.326 111.376C483.372 108.985 488.951 107.79 495.06 107.79C505.021 107.79 513.788 110.115 521.358 114.762V114.763ZM499.244 180.408C502.83 175.96 504.623 170.148 504.623 162.976C504.623 155.804 502.829 149.995 499.244 145.544C495.658 141.096 490.877 138.87 484.9 138.87C479.054 138.87 474.341 141.095 470.755 145.544C467.169 149.995 465.377 155.804 465.377 162.976C465.377 170.148 467.17 175.96 470.755 180.408C474.341 184.859 479.054 187.082 484.9 187.082C490.877 187.082 495.658 184.859 499.244 180.408Z" fill="#626981"/>
<path d="M559.203 69.7383H599.447V217.564H559.203V69.7383Z" fill="#626981"/>
<path d="M668.982 250.336C661.542 255.447 652.378 258.006 641.489 258.006C634.846 258.006 628.739 257.042 623.161 255.118C617.583 253.191 612.07 250.169 606.625 246.053L623.36 219.158C625.881 221.415 628.271 223.008 630.532 223.939C632.789 224.866 635.245 225.333 637.902 225.333C643.481 225.333 647.398 223.008 649.657 218.361L651.649 214.575L606.823 109.185H648.063L671.771 175.527L691.893 109.185H731.937L686.513 226.727C682.261 237.352 676.419 245.221 668.982 250.336Z" fill="#626981"/>
<path d="M827.36 114.863C821.315 111.476 815.438 109.783 809.729 109.783C803.485 109.783 797.841 111.377 792.794 114.564C787.746 117.752 783.761 122.169 780.841 127.812C777.918 133.46 776.458 139.801 776.458 146.838C776.458 153.876 777.918 160.221 780.841 165.865C783.761 171.512 787.746 175.96 792.794 179.213C797.841 182.469 803.485 184.094 809.729 184.094C815.04 184.094 820.717 182.635 826.763 179.711C832.806 176.792 838.218 172.807 843 167.758L866.907 193.259C859.336 201.495 850.204 208.071 839.514 212.983C828.821 217.895 818.227 220.354 807.736 220.354C793.791 220.354 781.206 217.201 769.984 210.891C758.759 204.583 749.96 195.849 743.586 184.692C737.212 173.535 734.023 161.053 734.023 147.238C734.023 133.69 737.276 121.438 743.786 110.48C750.291 99.5221 759.256 90.925 770.681 84.6803C782.102 78.4388 794.919 75.3164 809.132 75.3164C819.622 75.3164 830.115 77.5767 840.609 82.09C851.1 86.6073 859.866 92.6491 866.907 100.22L843 128.709C838.617 122.866 833.403 118.249 827.361 114.863L827.36 114.863Z" fill="#626981"/>
<path d="M1107.13 118.05C1115.7 125.022 1119.98 134.753 1119.98 147.236V217.563H1080.54V205.61C1077.22 209.992 1072.87 213.38 1067.49 215.77C1062.11 218.16 1055.9 219.356 1048.86 219.356C1037.44 219.356 1028.47 216.267 1021.96 210.091C1015.46 203.915 1012.2 195.647 1012.2 185.287C1012.2 174.797 1015.75 166.728 1022.86 161.082C1029.97 155.438 1040.36 152.55 1054.04 152.415H1080.54V152.017C1080.54 147.504 1078.94 143.982 1075.76 141.458C1072.57 138.936 1067.92 137.673 1061.81 137.673C1057.43 137.673 1052.35 138.339 1046.57 139.665C1040.79 140.995 1034.98 142.921 1029.14 145.443L1019.18 118.746C1037.51 111.309 1054.9 107.59 1071.37 107.59C1086.65 107.59 1098.57 111.076 1107.13 118.05H1107.13ZM1073.36 190.069C1076.68 188.077 1079.07 185.356 1080.54 181.901V172.139H1062.21C1054.11 172.139 1050.06 175.527 1050.06 182.3C1050.06 185.755 1051.12 188.41 1053.24 190.269C1055.37 192.131 1058.36 193.058 1062.21 193.058C1066.32 193.058 1070.04 192.062 1073.36 190.07V190.069Z" fill="#626981"/>
<path d="M1198.57 143.252C1195.58 141.394 1192.23 140.463 1188.51 140.463C1183.19 140.463 1178.88 142.589 1175.56 146.838C1172.24 151.091 1170.58 156.669 1170.58 163.573C1170.58 170.615 1172.2 176.292 1175.46 180.607C1178.71 184.924 1183.06 187.081 1188.51 187.081C1196.61 187.081 1202.32 183.097 1205.64 175.127L1236.92 190.866C1232.8 199.766 1226.33 206.673 1217.5 211.586C1208.66 216.501 1198.27 218.957 1186.32 218.957C1175.03 218.957 1165.13 216.665 1156.63 212.084C1148.13 207.502 1141.56 201.061 1136.91 192.759C1132.26 184.46 1129.94 174.798 1129.94 163.772C1129.94 152.615 1132.29 142.822 1137.01 134.385C1141.72 125.953 1148.36 119.412 1156.93 114.761C1165.5 110.114 1175.43 107.789 1186.71 107.789C1198 107.789 1208 110.248 1216.7 115.161C1225.4 120.076 1232.07 127.049 1236.72 136.079L1205.84 151.221C1203.98 147.769 1201.56 145.113 1198.57 143.252Z" fill="#626981"/>
<path d="M1351.28 118.847C1358.45 126.352 1362.04 136.349 1362.04 148.831V217.564H1321.8V160.386C1321.8 154.941 1320.4 150.658 1317.61 147.536C1314.82 144.417 1311.04 142.854 1306.26 142.854C1300.81 142.988 1296.49 144.98 1293.31 148.831C1290.12 152.684 1288.52 157.731 1288.52 163.972V217.564H1248.28V69.7383H1288.52V125.92C1292.38 119.943 1297.19 115.395 1302.97 112.272C1308.75 109.153 1315.42 107.59 1322.99 107.59C1334.68 107.59 1344.11 111.344 1351.28 118.846L1351.28 118.847Z" fill="#626981"/>
<path d="M215.339 244.772H205.514C176.847 244.772 153.607 221.533 153.607 192.865H175.6C184.931 192.865 190.773 182.764 186.103 174.678L143.743 101.303C139.072 93.2279 127.407 93.2279 122.737 101.303L80.3768 174.678C75.7063 182.764 81.5493 192.865 90.8798 192.865H112.872C112.872 221.533 89.6331 244.772 60.9655 244.772H51.1413C11.846 244.772 -12.7084 202.247 6.93921 168.219L89.0383 26.0139C108.686 -8.00463 157.795 -8.00463 177.442 26.0139L259.541 168.218C279.188 202.246 254.634 244.771 215.339 244.771V244.772Z" fill="#626981"/>
<path d="M986.252 103.277C983.031 99.5739 979.492 96.2829 975.716 93.4286L966.695 101.276C969.108 102.941 971.404 104.803 973.573 106.875C974.929 108.146 976.218 109.495 977.461 110.923C978.694 112.34 979.852 113.805 980.922 115.324C982.663 117.748 984.19 120.28 985.505 122.9L994.526 115.053C992.233 110.929 989.473 106.98 986.252 103.277ZM998.436 123.253L988.997 131.463C995.775 152.88 989.762 177.277 971.753 192.943C947.569 213.98 910.771 211.419 889.734 187.234C868.687 163.038 871.248 126.24 895.433 105.203C913.431 89.5476 938.428 86.9516 958.709 96.6422L968.148 88.4321C943.104 74.199 910.719 76.4658 887.786 96.4132C858.756 121.665 855.682 165.84 880.944 194.88C906.195 223.911 950.37 226.985 979.4 201.733C1002.33 181.785 1009.06 150.026 998.437 123.252L998.436 123.253Z" fill="#626981"/>
<path d="M966.826 120.175C965.908 119.12 964.945 118.124 963.948 117.178L955.102 124.872C956.134 125.77 957.107 126.756 958.035 127.822C958.952 128.877 959.785 129.967 960.53 131.113L969.376 123.418C968.597 122.301 967.733 121.219 966.825 120.175L966.826 120.175ZM974.09 131.788L973.396 131.523L964.463 139.294C968.216 151.221 964.866 164.789 954.845 173.506C941.374 185.224 920.869 183.797 909.16 170.336C897.451 156.875 898.869 136.36 912.341 124.642C922.362 115.925 936.254 114.477 947.554 119.857L956.488 112.086L956.322 111.362C940.4 101.779 919.451 103.015 904.695 115.852C886.378 131.785 884.428 159.655 900.371 177.983C916.304 196.3 944.175 198.23 962.492 182.297C977.25 169.46 981.386 148.876 974.09 131.79L974.09 131.788Z" fill="#626981"/>
<path d="M933.593 160.017C939.638 160.017 944.538 155.117 944.538 149.073C944.538 143.028 939.638 138.128 933.593 138.128C927.549 138.128 922.648 143.028 922.648 149.073C922.648 155.117 927.549 160.017 933.593 160.017Z" fill="#626981"/>
<path d="M1002.2 108.386L987.256 102.391L983.389 86.7617L963.611 103.966L966.175 115.248L937.602 140.102L943.03 146.343L971.603 121.489L982.421 125.59L1002.2 108.386Z" fill="#626981"/>
<path d="M1199.08 264.611V228.931H1216.25C1219.59 228.931 1222.46 229.475 1224.87 230.562C1227.32 231.649 1229.2 233.213 1230.53 235.251C1231.85 237.256 1232.51 239.635 1232.51 242.388C1232.51 245.14 1231.85 247.519 1230.53 249.524C1229.2 251.529 1227.32 253.092 1224.87 254.213C1222.46 255.3 1219.59 255.844 1216.25 255.844H1205.75L1211.11 250.696V264.611H1199.08ZM1211.11 252.021L1205.75 246.567H1215.49C1217.16 246.567 1218.38 246.193 1219.16 245.446C1219.98 244.698 1220.38 243.679 1220.38 242.388C1220.38 241.096 1219.98 240.077 1219.16 239.329C1218.38 238.582 1217.16 238.208 1215.49 238.208H1205.75L1211.11 232.754V252.021ZM1235.58 264.611V236.73H1246.54V245.14L1244.76 242.744C1245.61 240.57 1246.97 238.938 1248.83 237.851C1250.7 236.764 1252.95 236.22 1255.56 236.22V246.414C1255.05 246.346 1254.59 246.295 1254.19 246.261C1253.81 246.227 1253.42 246.21 1253.01 246.21C1251.28 246.21 1249.85 246.669 1248.73 247.587C1247.64 248.47 1247.1 250.016 1247.1 252.225V264.611H1235.58ZM1272.29 265.121C1269.13 265.121 1266.33 264.509 1263.88 263.286C1261.47 262.029 1259.56 260.313 1258.17 258.138C1256.78 255.963 1256.08 253.465 1256.08 250.645C1256.08 247.825 1256.78 245.327 1258.17 243.152C1259.56 240.977 1261.47 239.278 1263.88 238.055C1266.33 236.832 1269.13 236.22 1272.29 236.22C1275.45 236.22 1278.25 236.832 1280.7 238.055C1283.15 239.278 1285.05 240.977 1286.41 243.152C1287.8 245.327 1288.5 247.825 1288.5 250.645C1288.5 253.465 1287.8 255.963 1286.41 258.138C1285.05 260.313 1283.15 262.029 1280.7 263.286C1278.25 264.509 1275.45 265.121 1272.29 265.121ZM1272.29 256.15C1273.14 256.15 1273.9 255.946 1274.58 255.538C1275.26 255.131 1275.81 254.519 1276.22 253.703C1276.62 252.854 1276.83 251.834 1276.83 250.645C1276.83 249.422 1276.62 248.419 1276.22 247.638C1275.81 246.822 1275.26 246.21 1274.58 245.803C1273.9 245.395 1273.14 245.191 1272.29 245.191C1271.44 245.191 1270.68 245.395 1270 245.803C1269.32 246.21 1268.77 246.822 1268.37 247.638C1267.96 248.419 1267.75 249.422 1267.75 250.645C1267.75 251.834 1267.96 252.854 1268.37 253.703C1268.77 254.519 1269.32 255.131 1270 255.538C1270.68 255.946 1271.44 256.15 1272.29 256.15Z" fill="#626981"/>
</svg>
