<svg width="978" height="330" viewBox="0 0 978 330" fill="none" xmlns="http://www.w3.org/2000/svg">
<g clip-path="url(#clip0_488_269)">
<path d="M513.713 115.591C513.713 133.221 498.824 143.485 470.942 143.485H414V42.3096H468.044C495.934 42.3096 508.943 53.4416 508.943 68.762C508.943 78.1581 504.174 85.9616 494.923 90.588C506.77 94.9277 513.713 103.599 513.713 115.591ZM447.527 66.1581V81.1919H463.426C471.086 81.1919 474.557 78.5881 474.557 73.675C474.557 68.762 471.086 66.1581 463.426 66.1581H447.527ZM479.318 111.681C479.318 106.482 475.56 103.735 468.044 103.735H447.527V119.628H468.044C475.56 119.628 479.318 116.881 479.318 111.681Z" fill="#626981"/>
<path d="M517.609 103.878C517.609 79.8856 536.829 62.9727 563.564 62.9727C590.3 62.9727 609.519 79.8856 609.519 103.878C609.519 127.869 590.443 144.926 563.564 144.926C536.686 144.926 517.609 127.869 517.609 103.878ZM576.423 103.878C576.423 93.6135 570.786 88.4138 563.564 88.4138C556.343 88.4138 550.706 93.6135 550.706 103.878C550.706 114.142 556.343 119.485 563.564 119.485C570.786 119.485 576.423 114.142 576.423 103.878Z" fill="#626981"/>
<path d="M664.571 143.484L653.735 126.571L641.593 143.484H606.188L636.1 104.315L607.055 64.4297H643.902L655.176 81.1914L667.023 64.4297H701.274L672.23 102.874L701.999 143.484H664.571Z" fill="#626981"/>
<path d="M699.109 92.8969C699.109 62.256 723.241 40 756.187 40C789.132 40 813.264 62.256 813.264 92.8969C813.264 123.538 789.132 145.794 756.187 145.794C723.241 145.794 699.109 123.538 699.109 92.8969ZM778.878 92.8969C778.878 77.1465 768.758 67.607 756.187 67.607C743.615 67.607 733.496 77.1465 733.496 92.8969C733.496 108.647 743.615 118.187 756.187 118.187C768.758 118.187 778.878 108.647 778.878 92.8969Z" fill="#626981"/>
<path d="M908.211 64.4219V143.477H877.144V135.96C871.221 142.027 863.275 144.918 854.748 144.918C835.815 144.918 821.508 133.786 821.508 108.066V64.4219H854.167V102.436C854.167 113.712 858.068 117.47 864.429 117.47C870.066 117.47 875.56 113.282 875.56 101.576V64.4219H908.219H908.211Z" fill="#626981"/>
<path d="M978 140.738C972.945 143.628 965.572 144.926 957.913 144.926C936.09 144.926 923.375 134.662 923.375 112.844V92.6107H912.539V68.7621H923.375V46.6494H956.034V68.7621H972.22V92.6107H956.034V112.557C956.034 117.471 958.924 120.218 962.825 120.218C965.429 120.218 968.024 119.493 970.198 118.052L978 140.746V140.738Z" fill="#626981"/>
<path d="M510.098 286.791L496.42 255.712H448.618L434.605 286.791H414L472.431 161.337L530.782 286.791H510.098ZM455.871 239.396H489.493L477.128 211.869C476.412 210.109 475.671 208.094 474.907 205.809C474.135 203.532 473.371 200.984 472.598 198.181C471.937 200.816 471.237 203.277 470.496 205.554C469.756 207.832 469 209.934 468.227 211.861L455.863 239.388L455.871 239.396Z" fill="#626981"/>
<path d="M538.084 286.791V224.315H524.406V208.652H538.084V187.718C538.084 177.334 540.242 169.666 544.557 164.721C548.873 159.776 555.56 157.3 564.629 157.3C566.556 157.3 568.53 157.435 570.56 157.714C572.591 157.993 574.653 158.431 576.739 159.036V175.192C575.313 174.364 573.864 173.751 572.415 173.337C570.958 172.923 569.493 172.716 568.005 172.716C563.721 172.716 560.64 174.038 558.777 176.673C556.906 179.309 555.974 183.76 555.974 190.027V208.652H574.764V224.315H555.974V286.791H538.092H538.084Z" fill="#626981"/>
<path d="M600.108 221.09C602.035 215.922 604.575 212.108 607.736 209.632C610.896 207.155 614.806 205.921 619.479 205.921C622.003 205.921 624.495 206.223 626.939 206.829C629.384 207.434 631.788 208.31 634.153 209.464L627.727 224.633C626.191 223.535 624.527 222.722 622.743 222.205C620.96 221.679 618.962 221.424 616.772 221.424C610.841 221.424 606.581 223.805 604.002 228.551C601.422 233.305 600.124 241.284 600.124 252.495V286.783H582.242V208.477H600.124V221.09H600.108Z" fill="#626981"/>
<path d="M637.734 174.85C637.734 171.832 638.849 169.22 641.07 167.022C643.292 164.824 645.943 163.726 649.024 163.726C652.105 163.726 654.86 164.785 656.978 166.903C659.096 169.021 660.155 171.672 660.155 174.858C660.155 178.043 659.08 180.726 656.938 182.892C654.796 185.066 652.161 186.149 649.024 186.149C645.887 186.149 643.3 185.034 641.07 182.812C638.841 180.591 637.734 177.939 637.734 174.858V174.85ZM640.123 286.783V208.644H658.005V286.783H640.123Z" fill="#626981"/>
<path d="M736.85 230.9C734.103 227.882 730.903 225.573 727.248 223.972C723.594 222.38 719.653 221.583 715.425 221.583C708.116 221.583 702.264 223.948 697.87 228.67C693.475 233.4 691.277 239.659 691.277 247.463C691.277 255.266 693.491 261.987 697.909 266.629C702.328 271.271 708.443 273.596 716.245 273.596C720.584 273.596 724.462 272.784 727.869 271.168C731.277 269.543 734.27 267.091 736.85 263.794V284.402C733.554 286.273 730.019 287.675 726.261 288.606C722.495 289.538 718.498 290.008 714.271 290.008C702.018 290.008 692.034 286.106 684.311 278.302C676.588 270.499 672.734 260.386 672.734 247.972C672.734 235.558 676.731 225.238 684.725 217.514C692.718 209.791 703.172 205.937 716.086 205.937C720.154 205.937 723.888 206.335 727.296 207.131C730.704 207.927 733.888 209.153 736.858 210.802V230.916L736.85 230.9Z" fill="#626981"/>
<path d="M823.587 286.791H805.705V276.654C802.521 281.161 798.795 284.513 794.535 286.711C790.276 288.909 785.403 290.008 779.909 290.008C768.867 290.008 760.172 286.233 753.827 278.677C747.481 271.12 744.305 260.776 744.305 247.646C744.305 234.515 747.545 225.103 754.026 217.435C760.507 209.767 768.97 205.937 779.408 205.937C785.777 205.937 791.231 207.266 795.769 209.934C800.299 212.601 803.612 216.431 805.697 221.432V208.66H823.579V286.799L823.587 286.791ZM806.199 247.47C806.199 239.396 804.32 233.098 800.554 228.591C796.788 224.084 791.534 221.83 784.774 221.83C778.015 221.83 772.696 224.155 768.827 228.798C764.949 233.44 763.015 239.882 763.015 248.123C763.015 256.365 764.886 262.823 768.62 267.33C772.354 271.837 777.632 274.09 784.448 274.09C790.873 274.09 796.112 271.646 800.148 266.756C804.185 261.867 806.207 255.433 806.207 247.47H806.199Z" fill="#626981"/>
</g>
<g clip-path="url(#clip1_488_269)">
<path d="M104.195 111.026V139.594C104.195 141.931 105.208 144.155 106.968 145.693L117.978 155.293C119.457 156.578 121.35 157.291 123.309 157.291H158.905C161.138 157.291 162.951 159.102 162.951 161.332V172.584C162.951 173.469 163.177 174.341 163.604 175.12L174.207 194.335C175.02 195.813 175 197.604 174.147 199.062L170.935 204.561C169.949 206.245 169.795 208.289 170.522 210.1L184.991 246.419C188.11 254.241 198.64 255.553 203.585 248.735L231.61 210.067C232.396 208.988 232.816 207.684 232.816 206.345V185.739C232.816 183.782 233.522 181.885 234.802 180.407L264.586 145.953C267.372 142.73 265.079 137.73 260.821 137.73H248.931C246.738 137.73 244.719 136.552 243.646 134.648L222.686 97.5038C221.519 95.4332 219.46 94.0218 217.101 93.6756L198.473 90.9592C196.16 90.6196 193.821 91.352 192.115 92.9499L191.262 93.7488C189.283 95.5997 186.337 95.9791 183.951 94.6875L174.9 89.7874C173.254 88.8953 172.088 87.3174 171.721 85.4865L171.568 84.7142C170.795 80.866 167.496 78.0431 163.57 77.8766L139.185 76.8513C136.819 76.7515 134.513 77.6436 132.833 79.308L106.595 105.273C105.055 106.791 104.195 108.862 104.195 111.026Z" fill="#626981"/>
<path d="M242.411 208.323L256.247 198.802C257.406 198.004 258.926 199.102 258.533 200.454L250.942 226.565C250.842 226.905 250.629 227.191 250.342 227.391L240.605 233.929C239.525 234.655 238.092 233.749 238.292 232.464L241.785 209.335C241.845 208.929 242.078 208.563 242.418 208.323H242.411Z" fill="#626981"/>
<path d="M324.667 131.325V233.848C324.667 261.944 301.868 284.72 273.743 284.72H96.2505C68.1258 284.72 45.3261 261.944 45.3261 233.848V96.1518C45.3261 68.0559 68.1258 45.2796 96.2505 45.2796H238.534V0H69.0455C30.9105 0 0 30.8788 0 68.9747V261.025C0 299.121 30.9105 330 69.0455 330H300.954C339.089 330 370 299.121 370 261.025V131.325H324.674H324.667Z" fill="#626981"/>
<path d="M369.999 0V104.088H324.667V45.2796H265.805V0H369.999Z" fill="#626981"/>
<path d="M323.137 33.4675L287.094 65.6152L299.757 79.7841L335.8 47.6364L323.137 33.4675Z" fill="#626981"/>
</g>
<defs>
<clipPath id="clip0_488_269">
<rect width="564" height="250" fill="white" transform="translate(414 40)"/>
</clipPath>
<clipPath id="clip1_488_269">
<rect width="370" height="330" fill="white"/>
</clipPath>
</defs>
</svg>
