<svg width="360" height="331" viewBox="0 0 360 331" fill="none" xmlns="http://www.w3.org/2000/svg">
<path d="M141.566 328.843C115.986 325.323 91.7261 315.859 69.3819 300.686C56.7567 292.118 36.0921 271.152 27.4866 258.177C15.6918 240.391 8.35065 223.802 3.02882 202.883C0.584923 193.287 0.5 192.126 0.5 166.083C0.5 143.692 0.783076 137.851 2.20789 131.17C6.52953 110.911 17.1638 86.5669 29.0152 69.8371C37.0357 58.4951 57.3134 38.1891 68.4195 30.3762C95.6231 11.2214 124.799 1.49299 158.551 0.313506C209.401 -1.451 257.25 19.8363 290.408 58.9858C295.456 64.9493 307.638 82.7076 307.638 84.1136C307.638 84.5665 293.729 84.9156 276.735 84.9062C241.483 84.8684 234.916 84.123 224.866 79.0276C221.347 77.2442 214.647 73.8285 209.977 71.4506C168.345 50.2293 115.391 60.8258 85.0077 96.4557C68.5327 115.78 60.6632 136.001 59.7385 161.422C58.559 193.353 68.5138 219.556 89.8389 240.664C112.759 263.358 145.426 273.454 180.018 268.538C189.076 267.245 192.511 267.122 196.908 267.934C208.91 270.142 218.875 277.804 224.017 288.75C226.612 294.298 226.923 295.977 227.273 306.291L227.65 317.699L220.724 320.265C197.002 329.06 166.892 332.324 141.566 328.843ZM249.135 258.083V205.714H185.547C128.432 205.714 121.893 205.563 121.383 204.223C120.477 201.864 120.751 182.322 121.789 175.151C123.393 164.007 129.658 155.487 138.575 152.307C140.991 151.439 147.926 151.052 161.514 151.023C183.801 150.976 184.679 150.712 185.613 143.739C186.066 140.38 185.792 139.446 183.716 137.379L181.282 134.945H163.788C147.539 134.945 146.152 135.077 144.397 136.832C143.359 137.87 142.51 139.568 142.51 140.606C142.51 142.38 141.878 142.493 132.027 142.493H121.534L122.195 138.011C123.544 128.821 128.205 121.678 135.773 117.234L140.151 114.658L183.792 114.374C207.797 114.223 227.433 114.28 227.433 114.497C227.433 114.856 202.805 157.723 196.908 167.631L194.587 171.528L170.223 171.631C142.151 171.754 142.604 171.612 141.783 180.161L141.331 184.955H170.119H198.908L218.941 149.57L238.973 114.186H251.23C261.053 114.186 263.393 114.431 263.006 115.441C262.742 116.139 253.995 131.831 243.568 150.335C233.132 168.829 224.602 184.181 224.602 184.455C224.602 184.728 230.122 184.955 236.869 184.955H249.135V170.329V155.704H259.043H268.951V170.329V184.955H314.243H359.535V195.334V205.714H314.243H268.951V251.874V298.034L262.516 302.715C256.561 307.046 250.9 310.452 249.654 310.452C249.371 310.452 249.135 286.881 249.135 258.083ZM306.43 264.15C301.004 262.848 297.777 260.866 294.201 256.696C284.369 245.212 288.7 226.982 302.656 221.141C306.251 219.632 314.262 219.49 319.14 220.849C324.632 222.368 330.831 229.058 332.69 235.475C335.134 243.854 333.36 250.808 327.114 257.46C321.612 263.31 313.63 265.886 306.43 264.15ZM317.074 246.43C319.518 245.948 320.376 245.297 320.376 243.91C320.376 242.495 319.584 241.929 317.074 241.57C313.884 241.117 313.752 240.938 313.299 236.38C312.903 232.38 312.507 231.615 310.705 231.36C308.742 231.087 308.581 231.427 308.581 235.786C308.581 238.39 308.157 240.777 307.638 241.098C306.09 242.051 306.562 246.118 308.346 247.184C309.251 247.722 310.846 247.92 311.884 247.619C312.922 247.317 315.262 246.779 317.074 246.43Z" fill="#626981"/>
</svg>
