<svg width="918" height="330" viewBox="0 0 918 330" fill="none" xmlns="http://www.w3.org/2000/svg">
<g clip-path="url(#clip0_488_323)">
<path d="M917.851 168.588H793.418C793.284 168.588 793.219 168.415 793.322 168.325L912.458 65.6986C912.49 65.6729 912.509 65.628 912.509 65.5895V0.243708C912.509 0.160334 912.445 0.0962006 912.361 0.0962006H613.432C592.104 0.0962006 573.167 13.7374 566.408 33.9652L529.836 143.409C529.791 143.544 529.599 143.544 529.554 143.409L492.976 33.9652C486.217 13.731 467.28 0.0962006 445.951 0.0962006H232.908C232.908 0.0962006 232.902 0.0962006 232.895 0.0962006C232.337 0.0384802 231.78 0 231.202 0H165.562C156.353 0 148.812 7.53571 148.812 16.7517C148.812 25.2494 155.763 32.208 164.266 32.208H180.651V32.3362C189.642 33.4137 196.683 41.1289 196.683 50.3963V50.5694C196.683 59.3109 190.424 66.6798 182.158 68.3794C182.145 68.3794 182.132 68.3794 182.126 68.3794H148.722C147.548 68.3794 146.407 68.5076 145.304 68.7513C142.284 69.4119 139.577 70.9447 137.455 73.0675C134.563 75.96 132.774 79.9427 132.774 84.3294C132.774 92.2563 138.641 98.8814 146.253 100.081C147.055 100.203 147.882 100.273 148.722 100.273H190.674C190.674 100.273 190.693 100.273 190.7 100.273C199.466 101.556 206.257 109.162 206.257 118.269V126.972C206.257 132.289 201.909 136.637 196.593 136.637H76.2967C67.3574 136.637 60.0469 143.948 60.0469 152.888C60.0469 159.86 64.5807 165.824 70.8395 167.973C72.4555 168.537 74.1997 168.845 76.0017 168.845H183.094C183.094 168.845 183.126 168.845 183.145 168.851C189.981 171.128 194.938 177.605 194.938 185.18V185.577C194.938 193.151 189.981 199.629 183.145 201.906C183.126 201.906 183.113 201.912 183.094 201.912H143.008C141.206 201.912 139.468 202.22 137.846 202.784C131.587 204.933 127.053 210.897 127.053 217.869C127.053 226.809 134.364 234.12 143.303 234.12H180.644V234.146H363.061C363.144 234.146 363.208 234.082 363.208 233.998V168.729C363.208 168.646 363.144 168.582 363.061 168.582H258.418C258.335 168.588 258.27 168.524 258.27 168.441V142.896C258.27 142.813 258.335 142.749 258.418 142.749H328.336C328.419 142.749 328.483 142.685 328.483 142.601V85.9584C328.483 85.875 328.419 85.8109 328.336 85.8109H258.418C258.335 85.8109 258.27 85.7468 258.27 85.6634V65.8012C258.27 65.7178 258.335 65.6537 258.418 65.6537H391.879C391.963 65.6537 392.027 65.7178 392.027 65.8012V234.005C392.027 234.088 392.091 234.152 392.174 234.152H469.518C469.602 234.152 469.666 234.088 469.666 234.005V141.331C469.666 141.158 469.909 141.126 469.954 141.293L496.355 232.267C496.683 233.383 497.702 234.152 498.869 234.152H560.495C561.663 234.152 562.682 233.383 563.009 232.267L589.417 141.293C589.462 141.126 589.705 141.165 589.705 141.331V234.005C589.705 234.088 589.77 234.152 589.853 234.152H667.184C667.267 234.152 667.331 234.088 667.331 234.005V65.8076C667.331 65.7242 667.396 65.6601 667.479 65.6601H820.615C820.749 65.6601 820.813 65.8333 820.711 65.923L698.157 171.115C698.125 171.141 698.106 171.186 698.106 171.224L698.061 234.005C698.061 234.088 698.125 234.152 698.209 234.152H892.059C906.378 234.152 917.985 222.544 917.985 208.223V168.736C917.985 168.652 917.921 168.588 917.838 168.588H917.851Z" fill="#626981"/>
<path d="M69.1883 32.2011H114.443C123.299 32.2011 130.545 24.954 130.545 16.0971C130.545 7.24027 123.299 -0.00683594 114.443 -0.00683594H69.1883C60.3323 -0.00683594 53.0859 7.24027 53.0859 16.0971C53.0859 24.954 60.3323 32.2011 69.1883 32.2011Z" fill="#626981"/>
<path d="M110.523 83.9887V83.8412C110.523 76.8699 105.989 70.9055 99.7306 68.757C98.1146 68.1926 96.3703 67.8848 94.5684 67.8848H16.1023C7.24637 67.8848 0 75.1319 0 83.9887C0 92.8456 7.24637 100.093 16.1023 100.093H94.4273C103.283 100.093 110.53 92.8456 110.53 83.9887H110.523Z" fill="#626981"/>
<path d="M267.193 297.869H233.795C233.955 304.205 237.81 307.636 245.928 307.636C250.731 307.636 255.143 306.142 258.061 303.538L262.159 310.022C257.747 313.748 251.366 315.538 244.908 315.538C232.224 315.538 224.195 308.605 224.195 298.016C224.195 284.522 234.353 274.755 248.455 274.755C260.113 274.755 267.834 281.316 267.834 292.199C267.834 294.213 267.597 296.15 267.205 297.862L267.193 297.869ZM234.661 291.68H258.766C258.843 285.568 254.515 282.214 247.974 282.214C241.433 282.214 236.476 285.869 234.661 291.68Z" fill="#626981"/>
<path d="M322.014 275.204L313.665 315.012H304.289L305.155 310.913C301.609 313.896 296.966 315.538 291.451 315.538C281.133 315.538 272.938 309.054 272.938 298.016C272.938 284.445 283.179 274.755 296.645 274.755C303.186 274.755 308.143 276.839 310.984 281.091L312.164 275.204H322.008H322.014ZM308.464 292.648C308.464 286.459 304.45 282.656 297.357 282.656C289.008 282.656 282.864 288.768 282.864 297.567C282.864 303.756 286.879 307.559 293.971 307.559C302.321 307.559 308.464 301.447 308.464 292.648Z" fill="#626981"/>
<path d="M323.194 311.208L327.292 304.051C330.678 306.36 336.353 307.925 341.945 307.925C348.402 307.925 351.474 306.136 351.474 303.153C351.474 296.592 328.709 301.659 328.709 288.172C328.709 279.821 336.744 274.755 348.717 274.755C354.385 274.755 360.298 276.025 363.838 278.186L360.215 285.343C356.514 283.105 351.865 282.284 347.767 282.284C341.387 282.284 338.315 284.369 338.315 287.133C338.315 293.989 361.08 288.845 361.08 302.121C361.08 310.843 352.731 315.538 340.912 315.538C333.589 315.538 326.657 313.671 323.188 311.215L323.194 311.208Z" fill="#626981"/>
<path d="M414.178 275.203L385.192 318.519C379.363 327.241 374.797 329.999 367.467 329.999C363.293 329.999 358.804 328.659 356.438 326.497L361.324 319.712C363.055 321.206 365.338 322.245 368.256 322.245C371.565 322.245 373.848 320.751 376.529 316.8L377.869 314.863L367.942 275.203H377.785L384.871 304.724L404.328 275.203H414.171H414.178Z" fill="#626981"/>
<path d="M487.427 288.024C487.427 289.512 487.267 291.154 486.876 292.943L482.227 315.012H472.383L477.032 293.168C477.27 292.052 477.347 291.006 477.347 290.038C477.347 285.414 474.749 282.881 469.311 282.881C462.54 282.881 458.044 286.536 456.396 294.284L451.984 315.012H442.141L446.79 293.168C447.027 292.052 447.104 291.006 447.104 290.038C447.104 285.414 444.507 282.881 439.069 282.881C432.297 282.881 427.802 286.536 426.154 294.361L421.742 315.012H411.898L420.248 275.204H429.623L428.757 279.526C432.458 276.249 437.267 274.755 442.545 274.755C448.611 274.755 453.337 276.993 455.62 281.316C459.872 276.993 465.464 274.755 472.242 274.755C481.534 274.755 487.447 279.379 487.447 288.024H487.427Z" fill="#626981"/>
<path d="M495.617 298.016C495.617 284.67 506.012 274.755 520.588 274.755C533.035 274.755 541.071 281.611 541.071 292.199C541.071 305.545 530.592 315.531 516.022 315.531C503.652 315.531 495.624 308.521 495.624 298.01L495.617 298.016ZM531.144 292.648C531.144 286.459 527.129 282.656 520.037 282.656C511.687 282.656 505.544 288.768 505.544 297.567C505.544 303.756 509.558 307.559 516.651 307.559C525 307.559 531.144 301.447 531.144 292.648Z" fill="#626981"/>
<path d="M592.664 275.203L566.276 315.011H556.111L546.422 275.203H556.111L563.121 304.801L582.731 275.203H592.658H592.664Z" fill="#626981"/>
<path d="M632.599 297.869H599.201C599.362 304.205 603.216 307.636 611.334 307.636C616.137 307.636 620.549 306.142 623.467 303.538L627.565 310.022C623.153 313.748 616.772 315.538 610.315 315.538C597.63 315.538 589.602 308.605 589.602 298.016C589.602 284.522 599.759 274.755 613.861 274.755C625.519 274.755 633.24 281.316 633.24 292.199C633.24 294.213 633.003 296.15 632.612 297.862L632.599 297.869ZM600.067 291.68H624.173C624.25 285.568 619.921 282.214 613.38 282.214C606.839 282.214 601.882 285.869 600.067 291.68Z" fill="#626981"/>
<path d="M676.864 281.091L648.584 307.559H671.901L670.323 315.011H634.008L635.188 309.123L663.468 282.655H641.491L643.069 275.203H678.121L676.858 281.091H676.864Z" fill="#626981"/>
<path d="M679.227 298.016C679.227 284.67 689.622 274.755 704.198 274.755C716.645 274.755 724.68 281.611 724.68 292.199C724.68 305.545 714.202 315.531 699.632 315.531C687.262 315.531 679.233 308.521 679.233 298.01L679.227 298.016ZM714.753 292.648C714.753 286.459 710.739 282.656 703.646 282.656C695.297 282.656 689.154 288.768 689.154 297.567C689.154 303.756 693.168 307.559 700.26 307.559C708.61 307.559 714.753 301.447 714.753 292.648Z" fill="#626981"/>
<path d="M776.274 288.171C776.274 289.659 776.037 291.23 775.722 292.943L771.073 315.011H761.23L765.796 293.167C766.033 292.051 766.11 291.006 766.11 290.108C766.11 285.484 763.429 282.874 757.683 282.874C750.514 282.874 745.551 286.6 743.896 294.354L739.484 315.005H729.641L737.99 275.197H747.365L746.423 279.597C750.283 276.319 755.323 274.748 760.915 274.748C770.207 274.748 776.274 279.443 776.274 288.165V288.171Z" fill="#626981"/>
<path d="M827.388 297.869H793.99C794.151 304.205 798.005 307.636 806.123 307.636C810.926 307.636 815.338 306.142 818.256 303.538L822.354 310.022C817.942 313.748 811.561 315.538 805.104 315.538C792.419 315.538 784.391 308.605 784.391 298.016C784.391 284.522 794.548 274.755 808.65 274.755C820.308 274.755 828.029 281.316 828.029 292.199C828.029 294.213 827.792 296.15 827.401 297.862L827.388 297.869ZM794.856 291.68H818.962C819.038 285.568 814.71 282.214 808.169 282.214C801.628 282.214 796.671 285.869 794.856 291.68Z" fill="#626981"/>
</g>
<defs>
<clipPath id="clip0_488_323">
<rect width="918" height="330" fill="white"/>
</clipPath>
</defs>
</svg>
