<svg width="578" height="471" viewBox="0 0 578 471" fill="none" xmlns="http://www.w3.org/2000/svg">
<path d="M15.4416 444.137C16.4029 451.444 22.7487 456.717 33.0577 456.717C38.4481 456.717 45.5193 454.682 48.875 451.203L58.2227 460.432C51.9889 466.902 41.8038 470.016 32.8159 470.016C12.4456 470.016 0.34375 457.436 0.34375 438.499C0.34375 419.563 12.5695 407.585 31.7366 407.585C50.9038 407.585 63.849 419.81 61.5725 444.132H15.4416V444.137ZM47.554 432.036C46.5927 424.369 40.6066 420.53 32.2143 420.53C24.3057 420.53 17.836 424.363 15.6775 432.036H47.554Z" fill="#626981"/>
<path d="M131.769 384.706V468.468H118.11L117.149 460.317C112.596 467.389 105.283 469.783 98.0937 469.783C80.7194 469.783 67.6562 458.277 67.6562 438.868C67.6562 418.499 80.4776 407.954 97.734 407.954C103.968 407.954 113.669 411.31 117.149 417.419V384.706H131.769ZM82.2764 438.868C82.2764 449.171 89.7073 456.242 99.055 456.242C108.403 456.242 116.193 449.531 116.193 438.868C116.193 428.206 108.285 421.612 99.055 421.612C89.8253 421.612 82.2764 428.2 82.2764 438.868Z" fill="#626981"/>
<path d="M155.612 409.385V440.299C155.612 449.287 160.525 456.116 169.873 456.116C179.22 456.116 184.971 448.568 184.971 439.58V409.385H199.473V468.578H186.41L185.448 460.551C179.338 466.543 173.706 469.421 165.438 469.421C151.295 469.421 140.992 458.758 140.992 440.423V409.391H155.612V409.385Z" fill="#626981"/>
<path d="M224.433 384.706V417.419C227.906 411.31 237.614 407.954 243.847 407.954C261.104 407.954 273.925 418.499 273.925 438.868C273.925 459.238 260.862 469.783 243.488 469.783C236.299 469.783 228.986 467.389 224.433 460.317L223.471 468.468H209.812V384.706H224.433ZM225.394 438.868C225.394 449.531 233.303 456.242 242.532 456.242C251.762 456.242 259.311 449.171 259.311 438.868C259.311 428.566 251.88 421.612 242.532 421.612C233.185 421.612 225.394 428.56 225.394 438.868Z" fill="#626981"/>
<path d="M340.898 438.984C340.898 455.998 329.274 469.781 310.101 469.781C290.928 469.781 279.422 455.998 279.422 438.984C279.422 421.97 291.164 408.188 309.977 408.188C328.791 408.188 340.892 422.088 340.892 438.984H340.898ZM294.042 438.984C294.042 447.972 299.432 456.358 310.101 456.358C320.77 456.358 326.16 447.972 326.16 438.984C326.16 429.996 319.927 421.486 310.101 421.486C299.556 421.486 294.042 430.114 294.042 438.984Z" fill="#626981"/>
<path d="M407.164 438.984C407.164 455.998 395.54 469.781 376.367 469.781C357.194 469.781 345.688 455.998 345.688 438.984C345.688 421.97 357.43 408.188 376.243 408.188C395.056 408.188 407.158 422.088 407.158 438.984H407.164ZM360.308 438.984C360.308 447.972 365.698 456.358 376.367 456.358C387.036 456.358 392.426 447.972 392.426 438.984C392.426 429.996 386.192 421.486 376.367 421.486C365.822 421.486 360.308 430.114 360.308 438.984Z" fill="#626981"/>
<path d="M453.269 425.084C449.076 421.127 444.281 419.812 438.649 419.812C431.702 419.812 427.862 421.97 427.862 425.685C427.862 429.401 431.336 431.677 438.885 432.155C450.031 432.874 464.168 435.393 464.168 451.086C464.168 461.513 455.658 470.5 438.761 470.5C429.413 470.5 420.066 468.943 411.438 459.956L418.627 449.529C422.82 454.2 432.409 457.679 438.997 457.797C444.511 457.915 449.66 455.043 449.66 450.726C449.66 446.651 446.304 444.976 437.918 444.492C426.771 443.655 413.472 439.58 413.472 426.157C413.472 412.735 427.615 407.704 438.395 407.704C447.625 407.704 454.572 409.503 461.402 415.495L453.251 425.078L453.269 425.084Z" fill="#626981"/>
<path d="M491.635 392.727V409.505H507.93V422.084H491.511V447.608C491.511 453.24 494.625 455.995 499.178 455.995C501.454 455.995 504.091 455.275 506.249 454.196L510.324 466.657C506.131 468.332 502.658 469.052 498.223 469.175C485.401 469.653 477.015 462.346 477.015 447.608V422.084H465.992V409.505H477.015V394.289L491.635 392.732V392.727Z" fill="#626981"/>
<path d="M563.164 409.381H577.183V468.456H563.4L562.681 459.828C559.325 466.781 550.101 470.131 543.508 470.255C526.01 470.373 513.07 459.592 513.07 438.863C513.07 418.133 526.611 407.825 543.868 407.948C551.776 407.948 559.325 411.664 562.681 417.532L563.159 409.381H563.164ZM527.696 438.857C527.696 450.121 535.487 456.832 545.194 456.832C568.201 456.832 568.201 421.005 545.194 421.005C535.487 421.005 527.696 427.599 527.696 438.863V438.857Z" fill="#626981"/>
<path d="M286.626 351.408C190.66 350.305 113.219 272.176 113.219 175.964C113.219 170.067 113.508 164.234 114.086 158.49C115.454 159.328 116.828 160.136 118.226 160.932C153.358 180.877 186.384 202.68 214.227 227.785C244.753 255.291 266.709 290.882 280.775 329.529C282.603 337.384 284.597 344.738 286.626 351.408Z" fill="#8D92A3"/>
<path d="M464.262 175.971C464.262 272.183 386.821 350.312 290.867 351.415C292.89 344.745 294.883 337.391 296.712 329.535C310.777 290.889 332.728 255.298 363.26 227.792C391.103 202.687 424.129 180.878 459.261 160.939C460.665 160.148 462.039 159.335 463.401 158.497C463.973 164.241 464.268 170.074 464.268 175.971H464.262Z" fill="#8D92A3"/>
<path d="M463.366 158.481C461.998 159.319 460.624 160.127 459.226 160.923C424.094 180.868 391.068 202.671 363.225 227.776C332.699 255.282 310.742 290.873 296.677 329.519C294.848 337.375 292.855 344.729 290.832 351.399C290.148 351.417 289.458 351.417 288.768 351.417C288.078 351.417 287.382 351.417 286.704 351.399C284.675 344.729 282.682 337.375 280.854 329.519C266.788 290.873 244.837 255.282 214.305 227.776C186.463 202.671 153.436 180.862 118.304 160.923C116.901 160.133 115.526 159.319 114.164 158.481C117.148 128.21 127.846 100.185 144.248 76.418C175.9 30.5535 228.819 0.5 288.768 0.5C348.717 0.5 401.636 30.5535 433.283 76.418C449.684 100.185 460.382 128.21 463.366 158.481Z" fill="#626981"/>
<path d="M354.395 170.328C354.189 170.445 353.982 170.563 353.782 170.681C340.5 178.248 328.027 186.528 317.482 196.029C305.746 206.609 297.301 220.291 291.898 235.153C291.78 235.66 291.662 236.155 291.539 236.65C290.807 239.646 290.011 242.43 289.227 244.936C288.879 244.919 289.244 244.936 288.896 244.919C288.885 244.866 288.867 244.818 288.855 244.765C288.837 244.818 288.826 244.866 288.808 244.919C288.466 244.936 288.832 244.919 288.484 244.936C287.67 242.347 286.85 239.464 286.101 236.356C286.001 235.96 285.906 235.559 285.812 235.153C280.404 220.291 271.965 206.609 260.228 196.029C249.66 186.51 237.157 178.218 223.852 170.634C223.675 170.534 223.492 170.428 223.315 170.328C201.883 158.167 191.486 134.542 198.239 112.173C198.339 111.825 198.445 111.483 198.551 111.146C205.074 117.622 213.348 124.522 223.852 131.699C232.828 137.833 243.444 144.166 255.976 150.606C256.035 150.63 256.082 150.66 256.141 150.689C258.194 151.957 260.305 153.225 262.552 154.463C273.563 160.55 281.1 168.199 286.101 176.573C287.121 178.283 288.035 180.017 288.855 181.78C289.657 180.058 290.548 178.36 291.539 176.691C296.54 168.269 304.095 160.579 315.158 154.463C317.405 153.225 319.517 151.957 321.569 150.689C321.628 150.66 321.675 150.63 321.734 150.606C334.231 144.184 344.823 137.868 353.782 131.752C364.321 124.557 372.619 117.64 379.153 111.146C379.259 111.483 379.366 111.825 379.472 112.173C386.224 134.542 375.827 158.167 354.395 170.328Z" fill="white"/>
<path d="M325.266 94.4744C333.397 74.8457 324.075 52.3425 304.446 44.212C284.817 36.0816 262.313 45.4027 254.183 65.0314C246.052 84.6601 255.373 107.163 275.003 115.294C294.632 123.424 317.135 114.103 325.266 94.4744Z" fill="white"/>
<path d="M392.779 289.313H379.716L374.078 260.61H387.141L392.779 289.313Z" fill="white"/>
<path d="M369.923 289.324H357.008L344.688 272.333H357.609L369.923 289.324Z" fill="white"/>
<path d="M392.213 289.313H379.716L374.078 260.61H386.581L392.213 289.313Z" fill="white"/>
<path d="M369.363 289.324H357.008L344.688 272.333H357.043L369.363 289.324Z" fill="white"/>
<path d="M370.152 289.313H357.844L374.888 260.61H387.196L370.152 289.313Z" fill="white"/>
<path d="M335.336 289.324H347.644L357.735 272.333H345.427L335.336 289.324Z" fill="white"/>
<path d="M415.701 260.043L415.229 240.947H414.474L398.267 249.734L402.567 252.276L380.516 289.312H392.824L411.667 257.661L414.946 260.043H415.701Z" fill="white"/>
<path d="M369.412 289.313H357.109L374.153 260.61H386.462L369.412 289.313Z" fill="white"/>
<path d="M334.531 289.324H346.834L356.924 272.333H344.616L334.531 289.324Z" fill="white"/>
<path d="M414.958 260.043L414.487 240.947L397.525 249.734L401.824 252.276L379.773 289.312H392.076L410.924 257.661L414.958 260.043Z" fill="white"/>
<path d="M184.766 289.313H197.835L203.467 260.61H190.404L184.766 289.313Z" fill="white"/>
<path d="M207.57 289.324H220.486L232.806 272.333H219.884L207.57 289.324Z" fill="white"/>
<path d="M185.359 289.313H197.862L203.494 260.61H190.992L185.359 289.313Z" fill="white"/>
<path d="M208.062 289.324H220.418L232.738 272.333H220.383L208.062 289.324Z" fill="white"/>
<path d="M207.302 289.313H219.61L202.566 260.61H190.258L207.302 289.313Z" fill="white"/>
<path d="M242.165 289.324H229.856L219.766 272.333H232.074L242.165 289.324Z" fill="white"/>
<path d="M161.828 260.043L162.3 240.947H163.055L179.261 249.734L174.962 252.276L197.013 289.312H184.705L165.862 257.661L162.583 260.043H161.828Z" fill="white"/>
<path d="M208.146 289.313H220.448L203.404 260.61H191.102L208.146 289.313Z" fill="white"/>
<path d="M242.993 289.324H230.685L220.594 272.333H232.902L242.993 289.324Z" fill="white"/>
<path d="M162.641 260.043L163.112 240.947L180.074 249.734L175.775 252.276L197.832 289.312H185.523L166.675 257.661L162.641 260.043Z" fill="white"/>
<path d="M285.981 154.495L239.101 123.262C238.465 122.837 237.609 123.297 237.609 124.058V132.886C237.609 133.27 237.833 133.612 238.187 133.765L285.976 154.495H285.981Z" fill="white"/>
<path d="M286.019 146.589L251.825 113.94C251.218 113.357 250.203 113.787 250.203 114.63V122.557C250.203 122.881 250.368 123.182 250.634 123.359L286.013 146.589H286.019Z" fill="white"/>
<path d="M291.516 154.495L338.396 123.262C339.033 122.837 339.888 123.297 339.888 124.058V132.886C339.888 133.27 339.658 133.612 339.31 133.765L291.522 154.495H291.516Z" fill="white"/>
<path d="M291.516 146.589L325.71 113.94C326.317 113.357 327.332 113.787 327.332 114.63V122.557C327.332 122.881 327.167 123.182 326.901 123.359L291.522 146.589H291.516Z" fill="white"/>
</svg>
