<svg width="1353" height="330" viewBox="0 0 1353 330" fill="none" xmlns="http://www.w3.org/2000/svg">
<path d="M143.29 0H226.758C305.57 0 370.049 64.4786 370.049 143.29C370.049 222.102 305.562 286.58 226.758 286.58H175.796L89.6362 330V276.063C37.2191 254.713 0 203.153 0 143.29C0 64.4786 64.4867 0 143.29 0Z" fill="#626981"/>
<mask id="mask0_605_104" style="mask-type:luminance" maskUnits="userSpaceOnUse" x="72" y="57" width="235" height="189">
<path d="M112.831 59.6206C113.388 59.6206 114.989 59.2245 115.514 59.0952C116.04 58.9658 116.598 58.9335 117.253 59.3539C117.907 59.7742 117.649 59.944 118.659 60.0087C119.678 60.0733 120.591 60.2997 121.901 60.2997C123.21 60.2997 124.852 60.138 125.401 60.0733C125.959 60.0087 126.646 59.944 127.042 59.5155C127.438 59.0871 128.942 57.4218 129.435 57.3894C129.928 57.3571 132.119 57.7856 132.871 58.0119C133.623 58.2383 135.886 58.9577 136.961 59.4185C138.037 59.8793 140.009 60.9222 140.567 61.1243C141.125 61.3183 142.628 61.6174 142.822 61.5527C143.016 61.4881 143.809 61.0596 144.035 61.1889C144.261 61.3183 145.118 61.6012 145.215 61.5608C145.312 61.5204 145.377 60.9545 146.129 61.5608C146.881 62.1671 148.877 63.8405 149.597 64.8187C150.316 65.805 152.248 68.0927 152.806 68.6182C153.364 69.1437 154.31 70.5503 154.706 71.2375C155.102 71.9246 156.016 73.5333 156.476 74.1154C156.937 74.7055 157.39 74.9319 158.077 74.8025C158.764 74.6732 159.257 74.2447 160.268 74.083C161.286 73.9214 162.297 73.8244 162.628 73.3312C162.96 72.8381 163.348 72.0863 163.51 72.0216C163.671 71.9569 165.046 72.6117 165.668 72.5794C166.291 72.5471 167.309 72.5794 168.449 71.9246C169.597 71.2698 171.561 69.7985 172.184 69.5317C172.806 69.273 174.609 68.4161 174.835 68.3838C175.062 68.3514 179.678 68.9092 180.47 69.1356C181.254 69.3619 184.431 72.1186 185.021 72.6683C185.611 73.2261 185.676 73.4848 186.46 73.5495C187.244 73.6142 188.134 73.2908 188.328 73.8082C188.522 74.3337 193.437 76.7589 194.843 77.3409C196.25 77.9311 197.333 77.7694 198.578 77.8987C199.823 78.0281 210.203 78.6829 210.203 78.6829C210.203 78.6829 216.913 71.868 217.374 71.577C217.835 71.286 219.67 69.5155 220.842 69.5155C222.014 69.5155 224.674 69.1518 225.458 69.1194C226.242 69.0871 228.303 68.0362 228.829 68.02C229.354 68.0038 243.437 67.3813 244.714 67.6077C245.991 67.8341 253.817 69.4751 253.946 69.6368C254.075 69.7985 255.159 71.6982 255.878 71.8599C256.598 72.0216 258.368 71.4961 259.249 71.4961C260.13 71.4961 261.804 72.0539 262.265 72.1833C262.725 72.3126 264.1 72.2803 264.455 72.1186C264.819 71.9569 265.539 70.1542 266.614 69.5317C267.697 68.9092 267.632 67.9311 268.546 67.4703C269.459 67.0095 271.852 65.3442 272.281 65.0127C272.709 64.6813 274.577 63.9618 275.296 63.6708C276.016 63.3797 277.487 63.2746 277.624 63.307C277.762 63.3393 277.915 63.1453 278.409 63.4687C278.902 63.8001 278.635 64.1235 279.354 64.0265C280.074 63.9294 280.47 63.8324 280.567 64.1235C280.664 64.4145 280.405 65.2391 280.567 66.0556C280.729 66.872 280.826 67.2682 281.189 67.5592C281.553 67.8502 282.103 68.2463 282.103 68.7395C282.103 69.2326 282.168 69.9197 282.394 69.9844C282.62 70.0491 283.243 69.556 283.445 70.1138C283.639 70.6716 283.704 71.5204 284.294 71.6821C284.884 71.8438 285.83 71.286 286.161 71.8114C286.493 72.3369 286.194 72.9917 286.687 72.927C287.18 72.8623 288.061 71.7467 288.392 72.1429C288.724 72.539 289.047 73.4201 289.379 73.4201C289.71 73.4201 291.052 72.0782 291.375 71.8842C291.707 71.6902 292.03 71.197 292.063 71.7225C292.095 72.248 290.947 73.3231 290.721 73.7839C290.494 74.2447 290.066 74.5034 290.13 75.0289C290.195 75.5543 290.357 76.0151 290.818 75.619C291.278 75.2229 292.063 75.0289 292.063 75.0289C292.063 75.0289 291.246 76.2092 291.181 76.6699C291.117 77.1307 291.408 77.7209 291.472 78.0766C291.537 78.4404 291.278 78.602 291.278 79.0952C291.278 79.5883 291.537 79.9763 291.537 80.3078C291.537 80.6392 291.311 80.7686 291.472 81.1243C291.634 81.4881 291.569 81.5204 292.063 81.7467C292.556 81.9731 293.307 82.2399 293.437 82.4339C293.566 82.6279 294.059 83.2827 294.318 83.9052C294.577 84.5277 294.94 85.0531 295.369 84.6247C295.797 84.1962 296.485 83.4767 296.646 83.8405C296.808 84.2043 296.743 84.9238 296.937 85.0208C297.131 85.1178 297.721 84.7621 297.754 85.0208C297.786 85.2795 297.818 87.1792 298.182 87.543C298.546 87.9068 302.143 88.1332 302.992 88.7556C303.841 89.3781 304.698 90.9141 305.086 91.2779C305.482 91.6417 306.137 91.5366 306.137 92.0944C306.137 92.6522 305.741 92.9432 305.708 93.5333C305.676 94.1235 306.234 94.94 306.137 95.2714C306.04 95.6028 305.514 95.8615 305.514 96.4517C305.514 97.0418 305.708 98.0927 305.611 98.4808C305.514 98.8688 304.989 99.4266 304.86 99.564C304.73 99.7015 304.496 99.9278 305.086 100.478C305.676 101.035 305.999 103.032 305.999 103.493C305.999 103.954 298.894 108.699 298.53 108.828C298.166 108.958 294.14 108.012 294.043 108.109C293.946 108.206 292.734 110.631 292.24 111.124C291.747 111.617 290.834 111.811 290.737 112.596C290.64 113.38 289.096 117.341 288.902 117.64C288.708 117.931 286.444 120.065 286.282 120.356C286.121 120.647 285.854 120.486 285.919 121.237C285.983 121.989 286.347 122.119 286.145 122.806C285.943 123.493 284.835 125.49 284.803 126.08C284.771 126.67 285.134 127.454 285.167 128.141C285.199 128.828 281.561 131.221 281.432 131.674C281.303 132.135 281.173 132.49 280.971 133.113C280.777 133.735 279.823 134.229 280.025 134.584C280.219 134.948 281.529 136.452 281.529 136.88C281.529 137.309 280.349 140.809 279.662 141.068C278.974 141.326 276.258 141.819 276.024 142.086C275.797 142.345 273.663 143.986 273.566 144.576C273.469 145.166 273.93 145.95 273.995 146.444C274.059 146.937 273.704 147.753 273.437 148.44C273.178 149.128 272.523 155.643 272.386 156.072C272.257 156.5 271.335 156.233 271.173 156.597C271.012 156.961 271.076 157.68 270.777 157.874C270.486 158.068 266.945 158.659 266.816 158.723C266.687 158.788 266.323 159.249 265.935 159.807C265.539 160.364 265.118 160.987 264.431 161.448C263.744 161.908 262.758 162.329 262.596 162.951C262.434 163.574 262.038 166.258 261.909 166.654C261.78 167.05 260.664 167.899 260.405 168.554C260.147 169.208 260.502 170.421 260.009 171.173C259.516 171.925 257.131 175.886 257.131 175.886C257.131 175.886 257.463 178.966 257.39 179.556C257.317 180.146 256.573 180.704 255.652 181.917C254.738 183.129 254.245 183.881 254.278 184.212C254.31 184.544 254.407 185.231 253.987 185.554C253.558 185.886 253.17 185.95 253.299 186.403C253.429 186.856 253.954 187.874 253.793 188.077C253.631 188.271 251.076 189.548 250.519 190.235C249.961 190.922 249.435 191.318 248.813 192.102C248.19 192.887 247.794 193.089 247.932 193.703C248.061 194.326 248.029 195.045 248.093 195.797C248.158 196.549 248.352 197.009 247.899 197.268C247.438 197.527 245.442 198.117 245.312 198.448C245.183 198.78 245.644 199.33 245.054 199.726C244.464 200.122 243.938 200.413 243.582 200.251C243.219 200.09 242.596 199.499 242.079 199.596C241.553 199.693 239.096 200.251 238.999 199.887C238.902 199.524 238.344 197.106 238.215 197.042C238.085 196.977 235.991 196.549 235.725 196.29C235.466 196.031 233.502 193.865 233.502 193.865C233.502 193.865 233.663 191.933 233.534 191.803C233.405 191.674 230.882 190.591 230.518 190.098C230.155 189.604 229.112 187.446 228.813 187.511C228.522 187.575 227.932 191.601 227.471 192.094C227.01 192.587 222.362 193.113 222.265 192.782C222.168 192.45 222.071 191.343 221.772 190.849C221.48 190.356 221.084 189.798 220.858 189.863C220.632 189.928 215.717 194.382 215.288 194.511C214.86 194.641 213.582 194.673 213.582 194.673C213.582 194.673 213.122 195.296 212.734 196.476C212.337 197.656 211.82 199.718 211.586 200.049C211.359 200.381 210.567 199.758 210.114 200.017C209.653 200.275 209.298 200.93 208.837 201.1C208.376 201.262 207.269 201.068 207.131 201.1C207.002 201.132 206.347 201.625 206.282 202.183C206.218 202.741 205.822 203.032 205.822 203.032L204.318 203.323C204.318 203.323 203.728 203.388 203.631 204.075C203.534 204.762 203.469 205.514 203.469 205.514L194.205 213.671C194.205 213.671 194.989 215.409 194.924 215.967C194.86 216.524 194.269 216.815 194.431 217.179C194.593 217.543 195.547 218.489 195.579 218.748C195.611 219.006 195.183 220.421 194.957 220.906C194.73 221.399 193.97 222.377 193.873 223.784C193.776 225.191 193.906 226.5 193.679 227.187C193.453 227.874 192.111 229.346 191.456 230.17C190.801 230.987 190.114 231.941 189.92 232.393C189.726 232.854 189.856 232.652 189.589 233.477C189.33 234.293 189.492 234.164 188.999 234.754C188.506 235.344 189.257 235.376 188.506 235.344C187.754 235.312 187.657 235.441 187.519 235.571C187.39 235.7 187.519 235.668 187.39 236.193C187.261 236.718 187.261 237.179 186.897 237.212C186.533 237.244 186.048 237.212 186.048 237.212L186.307 236.395C186.307 236.395 186.274 235.902 185.846 235.902C185.417 235.902 185.159 236.064 184.86 235.74C184.569 235.409 184.075 234.924 184.334 234.754C184.593 234.592 184.827 234.326 184.73 234.326C184.633 234.326 184.075 234.657 183.914 234.229C183.752 233.8 182.863 232.587 183.065 232.426C183.259 232.264 183.558 231.868 183.356 231.868C183.154 231.868 182.507 232.127 182.305 232.094C182.103 232.062 180.05 230.752 179.912 230.817C179.783 230.882 179.718 231.076 180.171 231.44C180.632 231.803 181.675 232.943 181.545 233.178C181.416 233.404 181.286 233.638 181.052 233.275C180.826 232.911 180.591 232.426 180.365 232.426C180.139 232.426 179.346 232.49 179.346 232.264C179.346 232.038 179.185 229.58 179.185 229.249C179.185 228.917 178.853 228.626 178.853 228.626C178.853 228.626 178.457 230.429 178.457 230.987C178.457 231.545 178.231 231.739 178.886 232.264C179.54 232.79 180.915 234.261 181.311 234.56C181.707 234.851 181.804 234.625 181.933 234.924C182.063 235.215 182.192 236.072 182.192 236.363C182.192 236.654 182.418 237.244 182.289 237.228C182.16 237.212 181.303 237.115 181.44 237.414C181.569 237.705 181.731 237.874 181.731 237.874C181.731 237.874 181.925 238.271 181.925 238.594C181.925 238.917 181.957 239.055 182.119 239.249C182.281 239.443 182.378 239.645 182.184 240.065C181.99 240.494 180.777 240.591 180.777 240.591H176.751C176.751 240.591 176.388 240.098 176.032 240.364C175.668 240.623 176.161 240.655 175.013 240.857C173.865 241.052 170.753 241.545 170.001 241.512C169.249 241.48 168.231 240.631 168.198 240.332C168.166 240.041 167.673 238.659 167.77 238.432C167.867 238.206 167.964 237.68 168.029 237.446C168.093 237.22 167.932 236.46 167.932 236.46C167.932 236.46 167.341 237.769 167.212 238.06C167.083 238.351 167.374 238.683 167.374 239.208C167.374 239.734 167.802 239.96 167.18 240.09C166.557 240.219 166.493 240.316 166.096 240.057C165.7 239.798 165.506 239.37 165.474 239.564C165.442 239.758 165.215 240.025 165.409 240.284C165.603 240.542 165.838 240.575 165.805 240.712C165.773 240.849 165.345 240.906 165.248 240.938C165.151 240.971 164.884 240.647 164.819 240.025C164.755 239.402 164.625 239.006 164.625 239.006C164.625 239.006 163.38 238.222 163.445 238.675C163.51 239.127 163.873 239.427 164.067 239.758C164.261 240.089 164.399 240.381 164.294 240.607C164.197 240.833 164.326 241.326 163.768 241.035C163.21 240.744 163.404 240.744 163.21 240.744C163.016 240.744 162.75 241.108 162.62 240.744C162.491 240.381 162.16 239.993 161.901 239.798C161.642 239.604 161.181 239.273 161.181 239.273C161.181 239.273 159.71 237.567 159.54 237.503C159.371 237.438 158.691 237.309 158.788 237.373C158.885 237.438 159.54 238.028 159.702 238.36C159.864 238.691 160.033 238.885 160.098 239.241C160.163 239.596 160.389 240.187 160.43 240.583C160.47 240.979 160.098 241.504 160.098 241.504L159.476 241.343C159.476 241.343 159.872 241.706 159.379 241.706C158.885 241.706 158.497 241.31 158.497 241.31C158.497 241.31 158.594 241.116 158.659 240.817C158.724 240.526 158.95 240.195 158.53 239.936C158.101 239.677 157.479 239.645 157.414 239.313C157.35 238.982 157.285 238.497 157.123 238.327C156.961 238.165 156.662 237.866 156.501 238.165C156.339 238.465 155.878 238.424 155.878 238.424C155.878 238.424 155.684 238.392 155.652 238.489C155.62 238.586 155.426 238.95 155.426 239.208C155.426 239.467 155.426 239.896 155.49 240.057C155.555 240.219 155.749 240.389 156.08 240.615C156.412 240.841 157.261 241.892 157.422 242.183C157.584 242.474 157.681 243.525 157.422 243.622C157.164 243.719 156.864 243.784 156.703 243.428C156.541 243.064 156.242 242.87 156.242 242.644C156.242 242.418 156.21 242.119 155.983 242.119C155.757 242.119 155.555 241.828 155.555 241.828C155.555 241.828 155.587 241.302 155.126 241.431C154.666 241.561 154.043 241.625 153.946 241.464C153.849 241.302 153.914 240.251 153.914 240.251C153.914 240.251 154.278 239.92 154.205 239.629C154.132 239.338 153.873 238.845 153.841 238.748C153.809 238.651 153.477 238.457 153.55 238.19C153.615 237.931 153.712 237.632 153.518 237.535C153.324 237.438 153.057 237.106 152.96 236.815C152.863 236.524 152.669 235.765 152.669 235.765L152.572 234.681L152.046 234.617C152.046 234.617 151.715 234.52 152.111 235.336C152.507 236.153 152.604 237.203 152.766 237.664C152.928 238.125 153.13 238.351 153.162 238.974C153.194 239.596 153.097 239.338 153.097 240.057C153.097 240.777 153.065 241.173 153.356 241.593C153.647 242.022 153.817 242.119 154.011 242.773C154.205 243.428 154.375 243.857 154.375 243.857C154.375 243.857 153.493 243.792 153.13 243.857C152.766 243.921 152.281 244.22 152.281 243.857C152.281 243.493 152.184 242.612 152.184 242.612C152.184 242.612 151.925 241.86 152.022 241.205C152.119 240.55 152.087 239.766 152.087 239.766C152.087 239.766 152.022 238.917 151.957 239.014C151.893 239.111 151.432 239.831 151.4 240.13C151.367 240.421 151.335 241.246 151.367 241.472C151.4 241.698 151.367 242.062 151.109 241.537C150.85 241.011 150.648 240.72 150.454 240.55C150.26 240.389 149.864 240.187 149.864 239.734C149.864 239.281 149.864 238.36 149.67 238.327C149.476 238.295 149.306 239.41 149.379 239.895C149.451 240.381 150.26 241.27 150.527 241.569C150.785 241.86 151.246 242.879 151.311 243.275C151.375 243.671 151.408 244.293 151.117 244.487C150.826 244.681 150.397 245.045 150.203 244.714C150.009 244.382 149.581 244.455 149.678 243.501C149.775 242.555 148.797 240.033 148.691 239.766C148.594 239.507 148.166 239.992 148.295 240.389C148.425 240.785 149.047 242.612 149.08 243.234C149.112 243.857 149.177 244.447 148.982 244.576C148.788 244.706 146.986 245.005 146.986 245.005L146.695 244.511L145.846 244.317C145.846 244.317 145.32 243.954 144.827 243.792C144.334 243.63 143.946 242.879 143.744 242.773C143.55 242.676 143.251 242.709 143.089 242.773C142.928 242.838 142.596 242.515 142.596 242.515C142.596 242.515 142.725 243.073 142.37 243.137C142.014 243.202 141.521 242.943 141.586 243.234C141.65 243.525 141.747 244.317 141.65 244.511C141.553 244.706 141.189 244.908 141.189 245.005C141.189 245.102 141.416 245.562 141.319 245.659C141.222 245.756 139.912 245.991 139.75 245.821C139.589 245.659 139.128 245.263 139.128 245.263C139.128 245.263 138.538 245.853 138.376 245.595C138.215 245.336 137.657 244.746 137.657 244.746L137.131 243.76L136.67 244.317L136.145 244.479L134.803 243.727C134.803 243.727 134.771 243.105 134.577 243.105C134.383 243.105 134.181 243.17 134.084 243.105C133.987 243.04 132.442 242.086 132.378 241.989C132.313 241.892 131.82 241.496 132.345 241.302C132.871 241.108 133.687 240.744 133.429 240.55C133.17 240.356 133.138 240.55 132.515 240.647C131.893 240.744 130.551 240.251 130.26 239.831C129.969 239.402 128.457 237.737 128.457 237.503C128.457 237.268 128.36 236.912 128.683 237.212C129.015 237.503 129.371 237.503 129.338 237.147C129.306 236.791 129.177 236.921 128.813 236.492C128.449 236.064 126.816 234.237 126.816 234.237L127.996 235.085C127.996 235.085 129.209 235.344 129.274 235.247C129.338 235.15 129.767 235.118 129.306 234.883C128.845 234.657 128.78 234.487 128.78 234.487C128.78 234.487 129.007 232.814 128.813 232.846C128.619 232.879 128.481 233.436 128.287 233.792C128.093 234.156 127.859 234.576 127.665 234.188C127.471 233.792 126.784 232.814 126.784 232.814L125.377 229.346C125.377 229.346 126.719 228.982 127.018 228.982C127.317 228.982 127.382 228.756 127.576 229.313C127.77 229.871 127.641 230.461 127.94 230.655C128.231 230.849 128.594 230.817 128.659 230.688C128.724 230.558 128.4 230.065 128.4 230.065C128.4 230.065 127.778 229.119 128.174 228.917C128.57 228.723 129.16 228.424 128.861 228.424C128.562 228.424 127.98 228.457 127.875 228.36C127.778 228.263 127.447 227.018 127.22 227.309C126.994 227.6 127.253 228.06 126.929 228.327C126.598 228.586 125.191 228.691 125.191 228.691L124.633 228.165L123.356 224.891L124.795 224.463L125.708 224.625C125.708 224.625 126.234 225.118 126.428 224.988C126.622 224.859 127.77 224.592 127.77 224.592L129.177 224.334L129.928 224.398L130.219 224.237L129.274 223.808C129.274 223.808 128.126 223.056 128.223 222.862C128.32 222.668 128.716 222.272 128.716 222.272L130.648 221.714L130.551 221.221L128.683 221.512C128.683 221.512 127.665 221.48 127.632 222.102C127.6 222.725 126.784 223.477 126.784 223.477L125.935 223.638L125.442 222.523L125.377 223.606C125.377 223.606 123.122 223.113 122.725 222.725C122.329 222.329 121.577 221.157 121.577 221.157L122.362 220.566L123.477 220.76L124.035 221.124C124.035 221.124 124.035 220.696 124.528 220.76C125.021 220.825 125.183 220.631 125.183 220.631L126.824 219.75L127.705 219.524C127.705 219.524 126.921 218.933 126.557 218.933C126.193 218.933 125.902 218.804 125.708 219.16C125.514 219.524 126.137 219.621 125.345 219.75C124.561 219.879 123.704 220.146 124.003 219.782C124.294 219.419 124.067 218.966 124.334 218.796C124.593 218.634 124.924 218.634 125.353 218.465C125.781 218.295 126.662 217.648 126.533 217.648C126.404 217.648 124.763 217.616 124.763 217.616C124.763 217.616 124.73 215.781 124.504 215.878C124.278 215.975 124.213 217.123 124.172 217.381C124.14 217.64 123.582 219.055 123.259 219.346C122.928 219.637 122.442 219.839 122.014 219.936C121.586 220.033 121.133 220.332 121.028 220.227C120.923 220.122 119.427 217.866 119.427 217.866C119.427 217.866 119.524 217.018 119.856 216.718C120.187 216.427 120.147 216.258 120.907 216.031C121.658 215.805 122.313 215.474 122.58 215.247C122.839 215.021 125.167 213.056 125.628 212.992C126.088 212.927 126.347 212.959 126.347 212.959C126.347 212.959 126.743 212.701 126.97 212.701C127.196 212.701 127.818 212.862 127.988 213.194C128.15 213.525 128.643 213.622 128.643 213.622C128.643 213.622 129.395 213.161 129.589 213.258C129.783 213.355 129.88 213.42 130.147 213.388C130.405 213.355 130.898 213.258 130.769 213.161C130.64 213.064 130.114 212.474 129.718 212.507C129.322 212.539 128.902 212.765 128.7 212.838C128.506 212.903 128.7 212.377 127.948 212.345C127.196 212.313 126.476 212.216 126.145 212.248C125.814 212.28 124.706 212.903 123.987 213.364C123.267 213.824 122.216 214.964 121.763 215.166C121.303 215.36 120.712 215.53 120.454 215.498C120.195 215.465 119.961 215.102 119.734 215.562C119.508 216.023 119.144 216.646 118.821 216.411C118.489 216.185 117.835 215.231 117.835 215.231L116.59 212.248C116.59 212.248 113.542 208.845 113.445 208.78C113.348 208.715 112.596 208.683 112.2 208.351C111.804 208.02 111.513 207.365 111.513 207.365L110.729 207.236L106.832 204.617L102.903 204.584C102.903 204.584 101.23 203.832 99.3705 203.638C97.5031 203.444 89.5807 203.541 89.5807 203.541L87.0262 204.164C87.0262 204.164 86.533 204.98 86.2097 205.013C85.8782 205.045 75.765 204.722 74.9809 204.681C74.1967 204.641 72.588 204.285 72.5233 204.35C72.4587 204.414 72.0302 203.598 72.5233 203.105C73.0165 202.612 73.0488 201.989 73.0811 201.537C73.1135 201.084 73.4126 200.55 73.4126 200.55L73.0165 199.499L73.5419 198.222L74.3261 197.042L73.4772 196.161L73.5096 195.013C73.5096 195.013 73.7683 194.423 73.4449 194.026C73.1135 193.63 72.7901 193.242 72.8871 192.943C72.9841 192.652 72.2 192.782 72.9194 192.159C73.6389 191.537 73.0164 190.785 73.1781 190.389C73.3398 189.992 73.6713 189.37 73.6713 189.37V188.287L73.2751 186.452L73.1458 185.045L73.4368 183.339C73.4368 183.339 74.318 183.242 74.2857 182.782C74.2533 182.321 73.8895 182.353 73.7278 181.375C73.5662 180.389 73.1054 174.6 73.1054 174.6C73.1054 174.6 72.4829 173.582 72.7739 172.765C73.065 171.949 73.2671 171.456 73.1377 170.898C73.0084 170.34 72.7416 170.437 73.1701 169.491C73.5985 168.545 73.6632 167.988 73.6632 167.988C73.6632 167.988 73.6308 167.527 73.2024 166.71C72.7739 165.894 72.6122 165.207 72.6122 165.207C72.6122 165.207 73.1054 164.293 73.1377 163.962C73.1701 163.63 72.9437 163.275 73.1701 163.081C73.3964 162.887 73.4611 162.854 73.6632 162.361C73.8572 161.868 74.0916 161.545 74.0916 160.655C74.0916 159.766 73.5015 158.23 73.5015 158.23L73.7602 157.244L73.2347 155.902L73.6955 155.15C73.6955 155.15 74.0593 153.841 74.2857 153.218C74.512 152.596 74.5443 151.577 74.5443 151.577L74.8354 150.599L75.8863 150.437C75.8863 150.437 76.2177 149.75 76.9696 149.944C77.7214 150.138 78.0528 150.138 78.0528 150.138L79.1684 150.041C79.1684 150.041 79.5646 150.073 80.187 149.879C80.8095 149.685 81.0359 148.505 81.0359 148.505L81.432 147.357L81.7958 146.541C81.7958 146.541 82.1272 146.08 82.0868 145.756C82.0544 145.425 82.0221 144.94 81.9251 144.414C81.8281 143.889 81.8604 142.976 81.8604 142.976L82.7739 141.666L83.7925 140.421L84.609 139.305C84.609 139.305 85.0375 138.812 85.5953 138.521C86.1531 138.23 86.2501 137.931 86.2501 137.931C86.2501 137.931 85.757 137.309 85.757 137.212C85.757 137.115 86.0884 136.193 86.0884 136.193C86.0884 136.193 86.8726 135.409 87.4627 135.174C88.0528 134.948 88.74 134.39 88.74 134.39L89.7586 134.52L90.4457 133.768L91.1329 133.016L90.8742 131.868C90.8742 131.868 90.5831 130.987 90.9388 130.655C91.3026 130.324 91.4966 130.227 91.4966 130.227C91.4966 130.227 91.7877 129.863 91.7553 129.111C91.723 128.36 91.2622 127.834 90.9712 127.309C90.6802 126.783 90.7772 125.603 90.7772 125.603L91.2703 124.423L91.4643 123.541C91.4643 123.541 92.1191 122.951 92.7739 123.21C93.4287 123.469 94.0189 124.026 94.512 123.436C95.0051 122.846 95.4255 121.698 95.5953 121.076C95.765 120.453 95.8216 119.305 95.8216 118.853C95.8216 118.4 95.9833 118.004 95.4902 117.769C94.9971 117.543 94.4716 117.082 94.3422 116.718C94.2129 116.355 93.6874 116.128 93.9138 115.506C94.1401 114.883 94.4716 114.657 94.4716 113.905C94.4716 113.153 94.1806 112.038 94.1806 112.038C94.1806 112.038 93.8168 110.203 93.7198 109.879C93.6228 109.548 93.9461 109.944 93.1943 109.451C92.4425 108.958 91.0035 107.519 90.5427 106.864C90.0819 106.209 89.0714 104.867 89.0068 104.212C88.9421 103.558 88.7804 103.267 89.2978 102.41C89.8232 101.561 91.0035 98.8041 91.0035 98.8041C91.0035 98.8041 92.6042 97.7855 92.6446 97.0984C92.6769 96.4113 92.0868 94.94 92.0545 94.2851C92.0221 93.6303 92.1838 93.889 92.4829 92.7815C92.7739 91.6659 92.9114 91.6982 92.7093 90.5907C92.5152 89.4751 92.3778 89.3781 92.4829 88.5293C92.588 87.6805 92.879 84.8591 92.879 84.8591L94.1563 81.3264C94.1563 81.3264 96.4118 79.9197 97.8588 78.9011C99.2978 77.8826 100.446 76.4436 100.971 75.4007C101.497 74.3498 101.99 73.4687 102.087 72.8785C102.184 72.2884 102.087 72.0297 102.418 71.5042C102.75 70.9788 102.814 70.8817 102.944 70.0329C103.073 69.1841 102.515 66.0071 102.717 65.6756C102.911 65.3442 103.437 64.0022 103.93 63.8405C104.423 63.6788 106.088 63.3797 106.978 62.7249C107.859 62.0701 108.813 60.8898 109.306 60.4695C109.799 60.041 111.173 59.2569 111.367 59.2569C111.561 59.2569 112.839 59.5155 112.839 59.5155L112.831 59.6206Z" fill="white"/>
</mask>
<g mask="url(#mask0_605_104)">
<path d="M71.2578 52.2559V152.385V251.302H150.053V152.385V52.2559H71.2578Z" fill="white"/>
<path d="M149.766 52.2559V152.385V251.302H228.553V152.385V52.2559H149.766Z" fill="white"/>
<path d="M228.258 52.2559V152.385V251.302H307.045V152.385V52.2559H228.258Z" fill="white"/>
</g>
<path d="M415.867 93.6136C415.867 86.3217 421.777 80.582 429.764 80.582C437.751 80.582 443.66 85.966 443.66 93.0881C443.66 100.728 437.929 106.637 429.764 106.637C421.599 106.637 415.867 100.905 415.867 93.6055V93.6136ZM418.818 121.924H440.532V214.681H418.818V121.924Z" fill="#626981"/>
<path d="M551.359 161.536V214.689H529.645V164.317C529.645 147.817 521.48 139.822 507.583 139.822C492.127 139.822 481.698 149.2 481.698 167.793V214.697H459.984V121.94H480.655V133.929C487.777 125.416 499.071 120.897 512.62 120.897C534.851 120.897 551.359 133.581 551.359 161.544V161.536Z" fill="#626981"/>
<path d="M593.907 117.066V122.628H619.445V140H594.602V214.697H572.889V140H557.602V122.628H572.889V116.718C572.889 97.2598 584.53 84.584 606.066 84.584C613.535 84.584 620.827 86.1442 625.694 89.6204L619.614 105.95C616.316 103.695 612.145 102.126 607.626 102.126C598.596 102.126 593.907 107.163 593.907 117.066Z" fill="#626981"/>
<path d="M615.969 168.311C615.969 140.518 636.818 120.89 665.298 120.89C693.778 120.89 714.805 140.518 714.805 168.311C714.805 196.104 694.134 215.91 665.298 215.91C636.462 215.91 615.969 196.104 615.969 168.311ZM692.921 168.311C692.921 150.591 681.11 139.305 665.298 139.305C649.485 139.305 637.852 150.599 637.852 168.311C637.852 186.023 649.663 197.316 665.298 197.316C680.932 197.316 692.921 186.023 692.921 168.311Z" fill="#626981"/>
<path d="M780.288 120.89V141.561C778.38 141.213 776.811 141.043 775.251 141.043C758.752 141.043 748.323 150.768 748.323 169.701V214.689H726.609V121.933H747.28V135.481C753.537 125.756 764.823 120.89 780.288 120.89Z" fill="#626981"/>
<path d="M944.797 161.536V214.689H923.084V164.317C923.084 147.818 915.436 139.823 902.235 139.823C887.991 139.823 878.088 149.2 878.088 167.616V214.689H856.374V164.317C856.374 147.818 848.726 139.823 835.525 139.823C821.111 139.823 811.378 149.2 811.378 167.616V214.689H789.664V121.933H810.335V133.743C817.287 125.409 828.055 120.89 840.731 120.89C854.28 120.89 865.574 125.926 872 136.346C879.47 126.791 891.976 120.89 906.746 120.89C929.155 120.89 944.789 133.574 944.789 161.536H944.797Z" fill="#626981"/>
<path d="M1073.68 93.0967V214.689H1055.09L988.042 132.353V214.689H965.633V93.0967H984.218L1051.27 175.433V93.0967H1073.68Z" fill="#626981"/>
<path d="M1172.86 160.315V214.688H1152.36V203.395C1147.15 211.382 1137.07 215.901 1123.18 215.901C1101.99 215.901 1088.61 204.26 1088.61 188.108C1088.61 171.956 1099.03 160.485 1127.17 160.485H1151.14V159.094C1151.14 146.41 1143.49 138.941 1128.04 138.941C1117.62 138.941 1106.85 142.417 1099.89 148.148L1091.38 132.344C1101.29 124.705 1115.7 120.881 1130.64 120.881C1157.39 120.881 1172.85 133.565 1172.85 160.315H1172.86ZM1151.15 185.675V174.907H1128.74C1113.98 174.907 1109.98 180.469 1109.98 187.243C1109.98 195.06 1116.58 200.097 1127.7 200.097C1138.81 200.097 1147.5 195.23 1151.15 185.683V185.675Z" fill="#626981"/>
<path d="M1188.67 93.6136C1188.67 86.3217 1194.58 80.582 1202.57 80.582C1210.56 80.582 1216.46 85.966 1216.46 93.0881C1216.46 100.728 1210.73 106.637 1202.57 106.637C1194.4 106.637 1188.67 100.905 1188.67 93.6055V93.6136ZM1191.62 121.924H1213.34V214.681H1191.62V121.924Z" fill="#626981"/>
<path d="M1202.38 244.22L1208.64 228.068C1211.94 230.501 1216.46 231.714 1221.32 231.714C1229.31 231.714 1233.83 226.847 1233.83 216.952V121.932H1255.54V216.427C1255.54 236.75 1243.9 249.604 1223.23 249.604C1215.24 249.604 1207.43 248.044 1202.38 244.22ZM1230.69 93.6136C1230.69 86.3217 1236.6 80.582 1244.59 80.582C1252.58 80.582 1258.49 85.966 1258.49 93.0881C1258.49 100.728 1252.75 106.637 1244.59 106.637C1236.42 106.637 1230.69 100.905 1230.69 93.6055V93.6136Z" fill="#626981"/>
<path d="M1352.64 160.315V214.688H1332.14V203.395C1326.93 211.382 1316.85 215.901 1302.96 215.901C1281.77 215.901 1268.39 204.26 1268.39 188.108C1268.39 171.956 1278.81 160.485 1306.95 160.485H1330.92V159.094C1330.92 146.41 1323.27 138.941 1307.82 138.941C1297.4 138.941 1286.63 142.417 1279.68 148.148L1271.16 132.344C1281.07 124.705 1295.48 120.881 1310.42 120.881C1337.17 120.881 1352.63 133.565 1352.63 160.315H1352.64ZM1330.93 185.675V174.907H1308.52C1293.76 174.907 1289.76 180.469 1289.76 187.243C1289.76 195.06 1296.36 200.097 1307.48 200.097C1318.59 200.097 1327.28 195.23 1330.93 185.683V185.675Z" fill="#626981"/>
</svg>
