<svg width="1201" height="330" viewBox="0 0 1201 330" fill="none" xmlns="http://www.w3.org/2000/svg">
<path d="M262.357 102.262C261.253 97.9091 258.105 93.1916 252.934 88.1203L253.306 87.0267L295.458 72.5204V101.533C307.777 92.1087 320.042 84.7323 332.242 79.4144C344.441 74.0965 355.471 71.4375 365.332 71.4375C377.411 71.4375 386.965 75.2437 393.983 82.856C401.012 90.4683 404.521 102.015 404.521 117.487V221.197C404.521 230.867 405.078 237.879 406.182 242.232C407.286 246.585 410.435 251.303 415.605 256.374L415.234 257.457H362.358L361.986 256.374C367.168 251.292 370.305 246.585 371.409 242.232C372.513 237.879 373.071 230.867 373.071 221.197V113.509C373.071 104.085 370.852 96.8262 366.414 91.7549C361.976 86.6729 355.81 84.1426 347.929 84.1426C333.379 84.1426 315.889 92.2481 295.425 108.438V221.218C295.425 230.889 295.982 237.901 297.086 242.254C298.191 246.607 301.339 251.324 306.509 256.395L306.138 257.478H253.262L252.891 256.395C258.072 251.313 261.209 246.607 262.314 242.254C263.418 237.901 263.975 230.889 263.975 221.218V123.298C263.975 113.627 263.418 106.615 262.314 102.262H262.357Z" fill="#626981"/>
<path d="M526.706 87.5739C522.136 82.138 514.069 79.4148 502.492 79.4148C489.429 79.4148 478.093 82.4382 468.474 88.4852C458.865 94.5322 449.125 104.203 439.265 117.498L438.161 117.133V89.5681C441.364 89.5681 444.632 89.0856 447.955 88.1207C451.279 87.1557 455.531 85.7083 460.712 83.7677C469.086 80.8622 476.246 78.6321 482.16 77.056C488.074 75.4907 494.851 74.6973 502.492 74.6973C519.742 74.6973 534.478 78.021 546.677 84.6683C558.877 91.3157 564.977 102.498 564.977 118.216V221.208C564.977 230.879 565.534 237.89 566.638 242.243C567.742 246.596 570.89 251.314 576.061 256.385L575.689 257.468H533.538V240.785C527.624 247.315 520.475 251.968 512.09 254.745C503.706 257.522 495.081 258.915 486.205 258.915C466.484 258.915 451.639 254.563 441.648 245.857C431.668 237.151 426.672 226.032 426.672 212.491C426.672 198.95 429.995 188.26 436.652 179.672C443.31 171.095 451.191 164.501 460.319 159.912C469.436 155.324 481.023 150.488 495.07 145.406C508.625 140.571 518.419 136.336 524.465 132.712C530.499 129.088 533.527 124.252 533.527 118.205V116.029C533.527 102.488 531.242 92.999 526.684 87.5632L526.706 87.5739ZM465.697 242.061C471.239 249.673 479.318 253.48 489.91 253.48C500.503 253.48 511.041 249.974 520.048 242.962C529.045 235.95 533.549 224.467 533.549 208.513V130.181C531.078 133.087 527.875 135.928 523.94 138.705C519.994 141.482 514.692 144.816 508.046 148.676C497.693 154.723 489.123 160.341 482.346 165.541C475.568 170.741 469.709 177.389 464.779 185.483C459.849 193.589 457.389 203.067 457.389 213.949C457.389 224.832 460.166 234.438 465.708 242.05L465.697 242.061Z" fill="#626981"/>
<path d="M603.981 102.263C602.877 97.9102 599.729 93.1927 594.559 88.1213L594.93 87.0277L637.082 72.5214V247.315C637.082 264.481 634.557 278.322 629.506 288.84C624.456 299.358 618.17 307.335 610.65 312.771C603.129 318.206 592.963 323.953 580.151 330L579.047 327.459C587.672 322.624 593.837 316.341 597.532 308.6C601.227 300.859 603.5 290.652 604.375 277.958C605.239 265.263 605.665 245.139 605.665 217.574V123.299C605.665 113.628 605.107 106.616 604.003 102.263H603.981ZM605.457 24.478C609.764 20.2537 615.011 18.1309 621.177 18.1309C627.342 18.1309 632.578 20.2537 636.896 24.478C641.203 28.7131 643.367 33.8487 643.367 39.8957C643.367 45.9426 641.203 51.0783 636.896 55.3026C632.578 59.5376 627.342 61.6498 621.177 61.6498C615.011 61.6498 609.775 59.5376 605.457 55.3026C601.139 51.0783 598.986 45.9319 598.986 39.8957C598.986 33.8594 601.139 28.7131 605.457 24.478Z" fill="#626981"/>
<path d="M671.082 112.415C667.387 102.991 664.239 95.6147 661.659 90.2968C659.069 84.9789 656.172 80.626 652.969 77.2379L653.34 76.1551H708.435L708.807 77.2379C705.604 80.3794 703.385 83.2206 702.149 85.7616C700.914 88.3026 700.302 91.1438 700.302 94.2853C700.302 98.6382 701.778 104.685 704.74 112.415L746.148 216.49L787.185 112.415C794.083 95.0143 800.5 82.2556 806.413 74.1608C812.327 66.066 820.22 59.6009 830.08 54.7548C826.134 50.4018 824.166 45.4485 824.166 39.884C824.166 33.8477 826.32 28.7013 830.637 24.4663C834.944 20.242 840.192 18.1191 846.357 18.1191C852.522 18.1191 857.758 20.242 862.076 24.4663C866.383 28.7013 868.548 33.837 868.548 39.884C868.548 45.9309 866.383 51.0666 862.076 55.2909C857.769 59.5152 852.522 61.638 846.357 61.638H845.985C836.125 61.638 828.178 63.3964 822.133 66.8916C816.088 70.3976 811.037 75.5975 806.971 82.4808C802.904 89.3748 798.28 99.3458 793.11 112.394L735.796 257.446H728.767L671.093 112.394L671.082 112.415ZM829.14 242.243C830.244 237.89 830.801 230.878 830.801 221.207V123.298C830.801 113.627 830.244 106.615 829.14 102.262C828.025 97.9091 824.888 93.1917 819.717 88.1203L820.089 87.0267L862.24 72.5204V221.207C862.24 230.878 862.798 237.89 863.902 242.243C865.006 246.596 868.154 251.314 873.325 256.385L872.953 257.468H820.078L819.706 256.385C824.888 251.303 828.025 246.596 829.129 242.243H829.14Z" fill="#626981"/>
<path d="M895.513 256.385C900.694 251.303 903.831 246.596 904.935 242.243C906.039 237.89 906.597 230.879 906.597 221.208V75.7909C906.597 66.12 906.039 59.1081 904.935 54.7551C903.831 50.4021 900.683 45.6847 895.513 40.6133L895.884 39.5305L935.445 25.7532L1010.13 0V221.208C1010.13 230.879 1010.69 237.89 1011.79 242.243C1012.89 246.596 1016.04 251.314 1021.21 256.385L1020.84 257.468H967.966L967.594 256.385C972.776 251.303 975.913 246.596 977.017 242.243C978.121 237.89 978.679 230.879 978.679 221.208V39.895C978.679 33.1297 978.121 28.3479 977.017 25.571C975.902 22.7941 972.885 21.4003 967.955 21.4003C962.041 21.4003 952.061 23.8233 938.003 28.6481V221.208C938.003 230.879 938.56 237.89 939.665 242.243C940.769 246.596 943.917 251.314 949.087 256.385L948.716 257.468H895.84L895.469 256.385H895.513Z" fill="#626981"/>
<path d="M1056.16 96.6444C1071.82 82.0201 1091.96 74.708 1116.61 74.708C1138.55 74.708 1157.04 80.4548 1172.07 91.9376C1187.1 103.42 1196.47 121.015 1200.17 144.699L1184.28 149.416L1099.6 173.711C1078.16 179.758 1067.43 188.217 1067.43 199.1C1067.43 200.794 1067.55 202.005 1067.81 202.724C1072.24 218.924 1079.51 231.072 1089.62 239.166C1099.72 247.272 1111.07 251.314 1123.64 251.314C1134.74 251.314 1145.21 248.473 1155.07 242.79C1164.93 237.108 1173.42 229.077 1180.58 218.677L1183.55 220.489C1174.91 233.066 1164.44 242.608 1152.12 249.137C1139.79 255.667 1126.85 258.926 1113.3 258.926C1099.76 258.926 1086.06 255.42 1073.74 248.408C1061.41 241.396 1051.43 231.125 1043.79 217.584C1036.15 204.042 1032.2 187.853 1031.96 168.994V164.276C1032.45 133.816 1040.52 111.279 1056.17 96.6444H1056.16ZM1065.23 191.477C1067.44 186.159 1071.26 181.688 1076.69 178.064C1082.11 174.44 1089.5 171.17 1098.87 168.275L1169.49 147.969C1168.25 125.485 1163.44 108.438 1155.07 96.8374C1146.69 85.2366 1133.86 79.4362 1116.61 79.4362C1097.39 79.4362 1083.71 86.8127 1075.58 101.555C1067.44 116.308 1063.38 138.062 1063.38 166.828C1063.38 175.298 1063.99 183.511 1065.23 191.487V191.477Z" fill="#626981"/>
<path d="M141.54 61.6818L95.7813 35.5962L50.0114 61.6818L45.2671 64.3836V12.845L70.1908 27.9517V23.5558L44.9938 7.90234L20.3544 21.0792V78.579L0 90.1797V249.653L47.6502 290.888V114.925L95.7813 87.628L143.902 114.925V290.888L191.552 249.653V90.1797L141.54 61.6818Z" fill="#626981"/>
<path d="M91.5587 174.719H73.3906V192.538H91.5587V174.719Z" fill="#626981"/>
<path d="M118.16 174.719H99.9922V192.538H118.16V174.719Z" fill="#626981"/>
<path d="M91.5587 149.908H73.3906V167.727H91.5587V149.908Z" fill="#626981"/>
<path d="M118.16 149.908H99.9922V167.727H118.16V149.908Z" fill="#626981"/>
<path d="M70.1925 42.1462V34.7697L59.4688 28.7656V48.1395L70.1925 42.1462Z" fill="#626981"/>
</svg>
