<svg width="1338" height="330" viewBox="0 0 1338 330" fill="none" xmlns="http://www.w3.org/2000/svg">
<path d="M310.679 273.098C312.79 289.168 326.749 300.76 349.4 300.76C361.258 300.76 376.795 296.281 384.174 288.645L404.724 308.928C391.031 323.154 368.637 330 348.877 330C304.099 330 277.492 302.338 277.492 260.727C277.492 219.116 304.365 192.766 346.509 192.766C388.653 192.766 417.104 219.638 412.103 273.108H310.689L310.679 273.098ZM381.274 246.491C379.163 229.632 365.993 221.207 347.555 221.207C330.172 221.207 315.947 229.632 311.202 246.491H381.274Z" fill="#626981"/>
<path d="M461.867 142.443V248.859L505.59 196.702H544.044V198.547L491.098 257.817L551.424 324.2V326.567H512.703L461.867 267.83V326.567H429.727V142.443H461.867Z" fill="#626981"/>
<path d="M592.265 196.711L594.633 211.726C604.646 195.656 618.073 193.288 631.253 193.288C644.432 193.288 657.593 198.556 664.705 205.669L650.214 233.587C643.633 228.053 637.566 225.163 627.03 225.163C610.171 225.163 594.633 234.12 594.633 258.093V326.577H562.492V196.711H592.256H592.265Z" fill="#626981"/>
<path d="M708.688 196.712V264.673C708.688 284.433 719.49 299.448 740.029 299.448C760.569 299.448 773.216 282.855 773.216 263.095V196.712H805.09V326.834H776.383L774.271 309.185C760.835 322.355 748.454 328.679 730.283 328.679C699.197 328.679 676.547 305.239 676.547 264.93V196.702H708.688V196.712Z" fill="#626981"/>
<path d="M862.789 196.712V264.673C862.789 284.433 873.592 299.448 894.131 299.448C914.67 299.448 927.317 282.855 927.317 263.095V196.712H959.192V326.834H930.484L928.373 309.185C914.937 322.355 902.556 328.679 884.384 328.679C853.299 328.679 830.648 305.239 830.648 264.93V196.702H862.789V196.712Z" fill="#626981"/>
<path d="M1029.26 160.092V196.968H1065.08V224.63H1029V280.733C1029 293.114 1035.84 299.171 1045.86 299.171C1050.86 299.171 1056.66 297.593 1061.39 295.225L1070.35 322.621C1061.13 326.31 1053.49 327.889 1043.74 328.155C1015.56 329.211 997.122 313.14 997.122 280.743V224.64H972.883V196.978H997.122V163.525L1029.26 160.102V160.092Z" fill="#626981"/>
<path d="M1112.76 273.098C1114.88 289.168 1128.84 300.76 1151.49 300.76C1163.34 300.76 1178.88 296.281 1186.26 288.645L1206.81 308.928C1193.12 323.154 1170.72 330 1150.96 330C1106.18 330 1079.58 302.338 1079.58 260.727C1079.58 219.116 1106.45 192.766 1148.6 192.766C1190.74 192.766 1219.19 219.638 1214.19 273.108H1112.77L1112.76 273.098ZM1183.36 246.491C1181.25 229.632 1168.08 221.207 1149.64 221.207C1132.26 221.207 1118.03 229.632 1113.29 246.491H1183.36Z" fill="#626981"/>
<path d="M1265.02 196.711L1267.38 211.726C1277.4 195.656 1290.82 193.288 1304 193.288C1317.18 193.288 1330.34 198.556 1337.46 205.669L1322.96 233.587C1316.38 228.053 1310.32 225.163 1299.78 225.163C1282.92 225.163 1267.38 234.12 1267.38 258.093V326.577H1235.24V196.711H1265.01H1265.02Z" fill="#626981"/>
<path d="M122.938 180.789C155.89 180.789 182.603 154.077 182.603 121.125C182.603 88.1727 155.89 61.46 122.938 61.46C89.9862 61.46 63.2734 88.1727 63.2734 121.125C63.2734 154.077 89.9862 180.789 122.938 180.789Z" fill="#626981"/>
<path d="M86.3672 126.472L95.8674 118.501L110.626 134.788L159.498 92.2002L109.886 150.06L86.3672 126.472Z" fill="white"/>
<path d="M245.841 122.92H245.86C245.86 122.644 245.86 122.378 245.85 122.101C245.85 121.786 245.86 121.47 245.86 121.154H245.841C245.387 88.9742 232.661 58.7966 209.862 35.9981C186.64 12.7853 155.771 0 122.93 0C104.778 0 87.2182 3.90662 71.2267 11.3252C58.2934 17.3233 46.396 25.6199 36.008 35.9981C34.6268 37.3891 33.2753 38.7998 31.9534 40.25C31.0951 41.197 30.2467 42.154 29.418 43.1208C20.0757 54.0317 12.8149 66.3336 7.84283 79.5332C7.75404 79.7601 7.67512 79.987 7.58633 80.2139C2.81158 93.1669 0.226899 106.968 0.0295956 121.164H0.00986519C0.00986519 121.441 0.00986519 121.707 0.00986519 121.973C0.00986519 122.289 0 122.605 0 122.92H0.0295956C0.0394608 123.927 0.0690563 124.933 0.108517 125.939V327.663H39.3818V211.312C44.5709 216.127 50.1053 220.457 55.9258 224.265C60.8288 227.472 65.9488 230.303 71.2267 232.759C86.8433 240.01 103.959 243.907 121.667 244.075C122.082 244.075 122.496 244.085 122.92 244.085C123.167 244.085 123.404 244.085 123.64 244.085C169.198 244.716 206.054 281.967 206.054 327.672H245.377C245.377 294.831 232.592 263.963 209.379 240.75C203.243 234.614 196.564 229.198 189.461 224.571C196.732 219.875 203.558 214.361 209.833 208.087C232.631 185.288 245.367 155.101 245.811 122.93L245.841 122.92ZM123.759 204.742C123.335 204.742 122.91 204.742 122.486 204.742C122.249 204.742 122.023 204.742 121.796 204.742C117.968 204.693 114.199 204.377 110.52 203.825C95.8403 201.625 82.404 195.597 71.2464 186.797C52.0389 171.635 39.6186 148.234 39.3621 121.973C39.6482 95.7614 52.0586 72.4105 71.2366 57.2674C82.3842 48.4677 95.8305 42.4401 110.51 40.2401C114.564 39.6285 118.718 39.3128 122.94 39.3128C168.754 39.3128 206.054 76.3566 206.518 122.062C206.025 167.462 169.178 204.298 123.759 204.732V204.742Z" fill="#626981"/>
</svg>
