<svg width="968" height="331" viewBox="0 0 968 331" fill="none" xmlns="http://www.w3.org/2000/svg">
<path d="M822.871 325.373C820.342 322.795 818.272 320.227 818.272 319.651C818.272 317.825 826.171 309.535 827.919 309.535C829.96 309.535 837.801 317.346 837.801 319.377C837.801 320.686 829.179 330.04 827.968 330.04C827.695 330.04 825.4 327.941 822.871 325.373ZM585.351 323.791C578.965 321.008 576.104 314.759 578.545 308.919C580.029 305.365 585.565 301.996 588.231 303.022C589.618 303.549 589.579 303.969 587.84 306.82C585.019 311.439 585.634 317.151 589.198 319.524C591.444 321.027 596.287 320.266 598.337 318.079C601.579 314.612 602.477 311.038 602.477 301.547V292.71L598.63 296.187C586.893 306.791 571.885 297.397 573.428 280.407C574.326 270.496 579.785 262.929 587.616 260.751C592.322 259.453 595.447 259.472 604.713 260.878C611.08 261.855 612.193 262.284 611.568 263.573C611.158 264.413 610.592 275.652 610.308 288.541L609.801 311.976L607.018 316.702C602.663 324.113 593.201 327.208 585.351 323.791ZM599.03 290.885L602.477 287.848V277.185C602.477 266.639 602.448 266.512 599.968 265.575C594.031 263.31 587.938 265.077 584.94 269.92C580.908 276.453 581.581 289.225 586.122 292.408C589.754 294.956 595.105 294.322 599.03 290.885ZM798.919 321.926C797.21 320.158 795.814 318.274 795.814 317.727C795.814 316.526 800.94 311.488 802.161 311.488C803.576 311.488 808.507 316.614 808.507 318.088C808.507 319.416 807.961 320.071 804.016 323.439C802.102 325.07 801.916 325.021 798.919 321.926ZM775.582 319.075C772.652 316.028 772.584 315.794 774.166 313.929C778.179 309.203 778.96 309.066 782.192 312.523L785.19 315.725L781.929 318.996L778.658 322.268L775.582 319.075ZM149.631 314.827C146.819 312.366 144.524 309.769 144.524 309.046C144.524 307.748 154.074 298.794 155.46 298.794C156.583 298.794 166.455 307.777 166.787 309.095C167.09 310.296 157.247 319.299 155.636 319.299C155.138 319.299 152.443 317.288 149.631 314.827ZM180.731 311.888C176.913 308.675 177.02 306.82 181.268 303.295L184.666 300.463L188.025 303.725C189.88 305.521 191.394 307.523 191.394 308.177C191.394 309.437 185.945 314.417 184.558 314.417C184.1 314.417 182.381 313.274 180.731 311.888ZM815.011 309.691C812.511 307.152 810.46 304.633 810.46 304.096C810.46 303.559 812.657 300.952 815.343 298.306L820.215 293.501L824.199 297.368C830.448 303.422 830.565 304.018 826.435 308.588C820.713 314.915 820.196 314.964 815.011 309.691ZM838.475 310.706C837.029 309.193 835.848 307.572 835.848 307.094C835.848 305.814 840.916 300.747 842.195 300.747C843.533 300.747 848.542 305.844 848.542 307.211C848.542 308.461 843.386 313.44 842.078 313.44C841.541 313.44 839.91 312.21 838.475 310.706ZM206.714 308.754C203.365 305.258 203.414 304.535 207.163 301.772C210.053 299.633 210.395 299.585 212.778 301.03C217.211 303.715 217.533 305.229 214.369 308.519C210.874 312.181 210.024 312.2 206.714 308.754ZM751.512 306.742C749.97 305.043 749.979 304.799 751.669 302.719C753.27 300.737 753.68 300.639 755.594 301.83C757.957 303.315 758.357 305.59 756.561 307.386C754.91 309.037 753.416 308.841 751.512 306.742ZM786.245 304.36C784.526 302.592 783.12 300.698 783.12 300.151C783.12 298.891 788.276 293.912 789.574 293.912C790.111 293.912 792.035 295.454 793.861 297.329L797.171 300.747L793.861 304.164C792.035 306.039 790.277 307.582 789.955 307.582C789.633 307.582 787.953 306.137 786.245 304.36ZM769.206 302.807C766.96 300.522 767.048 298.53 769.489 296.323C771.432 294.556 771.539 294.576 774.078 297.114L776.675 299.721L774.361 302.182C771.647 305.063 771.461 305.092 769.206 302.807ZM158.243 298.745L152.99 293.814L157.755 288.98C160.372 286.325 163.194 284.157 164.014 284.167C165.879 284.196 174.794 292.584 174.794 294.302C174.794 295.611 165.791 303.676 164.327 303.676C163.868 303.676 161.124 301.459 158.243 298.745ZM560.529 302.426C557.209 300.756 556.789 298.481 556.682 281.462L556.584 266.571H553.792H550.999L550.501 274.627C549.876 284.508 547.279 290.533 541.391 295.708C539.067 297.759 535.493 299.926 533.452 300.532C531.402 301.147 522.487 301.704 513.621 301.782C499.951 301.889 497.461 301.694 497.207 300.434C497.041 299.624 497.822 298.667 498.945 298.315C503.563 296.851 503.915 294.79 503.632 270.867L503.368 248.507L499.951 248.019C497.783 247.706 496.533 246.993 496.533 246.066C496.533 243.732 511.365 241.008 520.944 241.574C530.093 242.121 534.575 243.302 539.126 246.349C543.412 249.22 548.626 257.041 549.378 261.708L549.964 265.39L553.45 263.027C557.434 260.322 560.812 259.277 562.931 260.087C564.142 260.556 564.415 263.378 564.503 276.55C564.64 298.296 564.25 296.372 568.546 296.245C572.979 296.109 573.37 297.837 569.522 300.551C565.626 303.295 563.244 303.793 560.529 302.426ZM526.344 296.743C536.665 294.527 541.479 286.764 541.401 272.43C541.352 262.626 538.764 255.586 533.54 250.997C528.121 246.232 518.181 244.542 513.767 247.628C511.541 249.2 511.531 249.22 511.844 270.965C512.127 290.533 512.342 292.935 513.963 294.732C514.958 295.835 516.716 296.919 517.868 297.144C519.021 297.368 520.28 297.612 520.651 297.681C521.032 297.759 523.59 297.339 526.344 296.743ZM625.238 302.68C622.045 301.411 621.04 296.118 621.04 280.554L621.03 266.698L618.559 266.395C617.202 266.22 615.991 265.653 615.874 265.136C615.532 263.642 623.207 259.697 625.912 259.97L628.353 260.224L628.841 278.288L629.33 296.353L632.991 296.245C637.424 296.109 637.815 297.837 633.968 300.551C630.374 303.08 627.816 303.705 625.238 302.68ZM643.791 301.323L641.047 298.97L640.735 282.282L640.432 265.595H637.073C632.415 265.595 632.679 263.066 637.542 261.122C640.627 259.882 641.75 258.681 643.43 254.785C646.291 248.136 648.37 248.37 648.37 255.342V260.712H653.809C658.887 260.712 659.228 260.859 658.935 262.909C658.672 264.774 657.881 265.184 653.741 265.595L648.859 266.083L648.575 279.265C648.224 295.679 648.536 297.231 652.081 296.528C657.705 295.405 658.428 295.415 658.838 296.567C659.326 297.954 650.782 303.676 648.234 303.676C647.296 303.676 645.295 302.612 643.791 301.323ZM669.315 302.299C662.91 299.516 659.121 292.222 659.121 282.682C659.121 275.105 660.859 270.418 665.331 265.956C671.473 259.814 678.279 258.525 691.334 261.054C696.128 261.982 697.564 262.626 697.193 263.691C696.919 264.472 696.704 272.137 696.704 280.73V296.353H700.122C704.916 296.353 704.555 298.686 699.312 301.577C695.777 303.53 694.673 303.735 692.672 302.817C691.344 302.211 689.703 300.395 689.02 298.764L687.78 295.816L685.895 297.925C683.698 300.405 677.058 303.637 674.246 303.617C673.172 303.608 670.956 303.012 669.315 302.299ZM680.281 295.806C681.794 295.23 684.245 293.609 685.719 292.203C688.356 289.693 688.405 289.42 688.405 278.083C688.405 266.571 688.395 266.522 685.895 265.575C675.818 261.738 668.387 268.377 668.387 281.218C668.387 288.746 670.145 293.472 673.651 295.376C676.785 297.075 676.892 297.085 680.281 295.806ZM711.107 302.69C709.896 302.192 708.812 301.665 708.705 301.508C708.588 301.362 708.256 288.492 707.973 272.918L707.445 244.601L704.76 244.289C703.286 244.123 702.075 243.39 702.075 242.668C702.075 240.93 710.209 237.053 713.031 237.453L715.257 237.766L715.511 267.381L715.774 296.987L719.329 296.675C723.83 296.265 724.396 297.808 720.745 300.512C717.19 303.129 713.958 303.862 711.107 302.69ZM135.433 299.966C133.988 298.452 132.807 296.939 132.807 296.597C132.807 295.591 139.046 290.016 140.179 290.006C140.745 290.006 142.62 291.461 144.339 293.228L147.463 296.45L144.241 299.575C140.286 303.412 138.792 303.471 135.433 299.966ZM800.335 297.944C797.19 294.663 797.151 293.853 800.022 291.148C802.922 288.434 804.719 288.473 807.385 291.314C809.894 293.99 809.474 295.757 805.656 298.579L802.893 300.62L800.335 297.944ZM829.208 293.98C825.878 290.26 823.154 286.891 823.154 286.5C823.154 286.1 825.859 282.956 829.169 279.519L835.184 273.25L830.155 268.221L825.127 263.193L818.985 269.276C815.606 272.625 812.384 275.359 811.818 275.359C811.251 275.359 808.625 273.045 805.988 270.213C796.78 260.351 796.985 262.06 804.113 254.336C807.56 250.587 810.402 247.062 810.421 246.476C810.441 245.9 809.367 244.396 808.019 243.136C806.672 241.877 805.578 240.217 805.578 239.455C805.578 238.684 816.729 226.507 830.37 212.388C852.233 189.744 855.396 186.063 857.222 181.2C859.664 174.678 859.771 171.905 857.847 165.431C855.611 157.902 855.719 158.02 818.047 119.421C808.498 109.637 800.696 101.034 800.696 100.302C800.696 99.5695 801.79 97.929 803.137 96.6694C804.485 95.4098 805.578 93.8084 805.578 93.1152C805.578 92.4219 802.942 89.0434 799.719 85.5965C796.497 82.1497 793.861 78.9372 793.861 78.4587C793.861 77.9705 796.917 74.5529 800.637 70.8424C808.312 63.2359 807.336 63.1969 815.157 71.5259C817.559 74.0745 820.078 76.1641 820.762 76.1641C821.973 76.1641 829.989 67.7471 829.989 66.4777C829.989 66.136 827.353 63.2457 824.131 60.0527C820.908 56.8597 818.272 53.8718 818.272 53.3933C818.272 52.1533 831.093 39.0591 832.323 39.0591C832.889 39.0591 836.102 41.7834 839.461 45.1131L845.573 51.167L851.217 45.1131C854.313 41.7834 857.535 39.0591 858.365 39.0591C859.195 39.0591 863.374 42.6817 867.661 47.1148C871.937 51.5479 887.971 68.1377 903.291 83.9756C960.081 142.719 958.441 140.922 962.268 148.655C969.689 163.673 969.006 185.243 960.677 199.05C957.406 204.469 954.32 207.896 934.586 228.001C924.578 238.205 904.58 258.75 890.148 273.65C875.726 288.551 863.442 300.747 862.847 300.747C862.261 300.747 859.009 298.003 855.621 294.644L849.46 288.541L843.816 294.644C840.701 298.003 837.508 300.747 836.717 300.747C835.916 300.747 832.548 297.7 829.208 293.98ZM856.431 280.73C859.878 277.234 862.837 273.972 863.003 273.484C863.384 272.352 851.588 259.736 850.143 259.736C849.557 259.736 846.13 262.655 842.527 266.229L835.985 272.732L842.507 279.89C846.091 283.825 849.284 287.047 849.596 287.057C849.909 287.067 852.985 284.215 856.431 280.73ZM852.174 73.9964C855.553 70.6569 858.306 67.3858 858.306 66.7316C858.306 66.0774 855.475 62.5524 852.008 58.8907L845.71 52.2411L838.826 59.0567C835.028 62.8063 832.04 66.1945 832.177 66.5949C832.762 68.2646 843.952 80.0698 844.948 80.0698C845.554 80.0698 848.805 77.3358 852.174 73.9964ZM235.382 297.075C233.039 295.181 233.351 293.052 236.252 291.246C237.775 290.299 238.566 290.445 240.685 292.115L243.262 294.146L241.085 296.47C238.468 299.253 238.117 299.292 235.382 297.075ZM193.298 293.374L189.948 289.918L193.844 286.578C195.983 284.743 197.994 283.229 198.307 283.21C198.619 283.19 200.601 284.704 202.701 286.569L206.529 289.967L202.877 293.404C200.875 295.298 198.658 296.841 197.946 296.841C197.243 296.841 195.153 295.279 193.298 293.374ZM215.463 292.125C213.393 289.84 213.432 288.736 215.639 286.735C218.012 284.596 220.003 284.704 222.161 287.086C223.89 288.99 223.87 289.117 221.654 291.48C218.929 294.38 217.631 294.517 215.463 292.125ZM752.313 290.894C751.307 289.273 753.563 287.399 754.91 288.746C756.043 289.879 755.33 291.959 753.827 291.959C753.348 291.959 752.674 291.48 752.313 290.894ZM102.537 278.581C79.366 256.963 76.7784 254.551 65.4125 244.113C47.5631 227.718 42.2805 222.895 27.6436 209.644C12.4696 195.896 7.29447 189.842 3.25199 181.083C0.752286 175.654 0.576526 174.414 0.586291 162.091C0.596055 150.501 0.869461 148.323 2.81259 144.027C8.28069 131.948 6.22039 134.028 80.567 65.4329C98.2895 49.0775 114.547 34.0499 116.695 32.0189C118.844 29.9977 121.041 28.3475 121.578 28.367C122.115 28.3866 125.61 31.189 129.35 34.5968L136.146 40.7874L143.313 34.5382C148 30.4469 150.93 28.5428 151.76 29.031C154.689 30.7593 166.006 41.8225 166.006 42.9649C166.006 43.6484 163.145 46.8219 159.659 50.0148C156.173 53.2176 153.312 56.1762 153.312 56.6059C153.312 57.0257 155.802 59.4278 158.849 61.9372L164.395 66.4972L170.351 60.5898C173.72 57.2503 177.147 54.7018 178.241 54.7311C179.295 54.7506 183.465 57.8459 187.488 61.6053L194.811 68.4306L187.712 74.9826C183.807 78.5856 180.623 81.9544 180.633 82.4621C180.643 82.9797 182.078 84.8642 183.816 86.6609L186.98 89.9222L179.666 96.9917C175.644 100.878 164.659 111.062 155.265 119.626C127.954 144.525 125.874 146.615 123.413 151.839C118.873 161.466 121.568 173.76 129.79 180.859C131.821 182.626 141.361 191.316 150.979 200.173C160.606 209.029 171.513 219.047 175.224 222.416L181.971 228.548L178.143 232.503L174.306 236.457L182.117 243.634L189.929 250.811L183.094 257.266C173.144 266.659 174.032 266.542 166.455 259.482C162.862 256.133 159.561 253.389 159.122 253.389C158.009 253.389 148.43 261.699 148.43 262.675C148.43 263.114 151.291 266.22 154.777 269.578C158.263 272.928 161.124 276.043 161.124 276.511C161.124 277.4 147.844 290.269 146.34 290.826C145.842 291.011 142.2 288.268 138.246 284.723L131.049 278.288L124.361 284.596C120.679 288.072 117.233 290.904 116.695 290.894C116.158 290.894 109.792 285.348 102.537 278.581ZM144.846 264.589C146.555 263.017 146.379 262.704 140.677 257.275C130.707 247.765 131.928 247.892 123.492 255.479C119.449 259.111 116.266 262.626 116.422 263.29C116.569 263.964 119.986 267.362 124.009 270.838L131.323 277.165L137.191 271.697C140.413 268.7 143.86 265.497 144.846 264.589ZM143.489 64.2026C147.17 60.8436 150.236 57.3968 150.285 56.5375C150.393 54.7799 137.23 42.6231 135.765 43.1309C134.057 43.7168 121.216 55.1509 121.138 56.1469C121.06 57.2015 134.75 70.198 136.019 70.2663C136.449 70.2859 139.808 67.5616 143.489 64.2026ZM179.374 287.272C176.054 283.805 176.083 283.053 179.637 280.427C183.201 277.79 183.445 277.8 186.755 280.71C190.095 283.649 190.095 284.137 186.707 287.379C183.279 290.66 182.615 290.65 179.374 287.272ZM776.324 288.59C774.81 286.764 775.338 284.157 777.496 282.8C778.833 281.95 779.634 282.175 781.333 283.883C783.432 285.973 783.442 286.08 781.685 288.014C779.566 290.367 777.945 290.533 776.324 288.59ZM812.931 285.153L809.24 281.374L812.54 277.41C814.347 275.222 816.29 273.435 816.856 273.426C818.174 273.396 824.131 279.509 824.131 280.886C824.131 282.341 820.43 286.901 818.35 288.014C816.983 288.746 815.85 288.141 812.931 285.153ZM791.127 282.878C789.408 281.11 788.002 279.011 788.002 278.21C788.002 276.423 794.173 270.477 796.019 270.477C796.761 270.477 799.007 272.147 800.999 274.197L804.631 277.908L801.116 282.009C799.192 284.254 796.858 286.1 795.931 286.1C795.003 286.1 792.836 284.655 791.127 282.878ZM236.642 280.661C235.754 278.347 237.833 276.716 239.698 278.269C240.851 279.226 240.948 279.841 240.109 280.856C238.644 282.624 237.365 282.546 236.642 280.661ZM207.837 278.327C206.021 276.843 205.767 276.111 206.597 274.754C208.569 271.522 210.639 270.897 212.817 272.869C215.395 275.203 215.317 276.423 212.446 278.513C210.219 280.124 210.014 280.114 207.837 278.327ZM765.593 277.859C762.956 274.676 767.311 270.858 770.241 273.777C771.481 275.027 771.608 275.789 770.797 277.087C769.372 279.353 767.106 279.685 765.593 277.859ZM163.594 275.261C158.712 270.965 158.897 269.862 165.449 264.813L168.301 262.607L172.04 266.249C174.091 268.26 175.77 270.428 175.77 271.082C175.77 272.186 168.857 278.288 167.607 278.288C167.305 278.288 165.498 276.921 163.594 275.261ZM186.755 272.342C184.471 270.164 182.606 268.026 182.606 267.587C182.606 266.493 190.193 259.736 191.423 259.736C191.97 259.736 194.401 261.572 196.832 263.808L201.246 267.879L197.096 272.107C194.811 274.431 192.477 276.335 191.921 276.326C191.364 276.316 189.04 274.529 186.755 272.342ZM780.308 268.153L778.12 265.839L780.542 263.027L782.954 260.224L785.483 262.587C788.471 265.399 788.617 266.688 786.215 268.866C783.833 271.014 782.886 270.906 780.308 268.153ZM220.169 267.508C218.412 265.575 218.422 265.468 220.423 263.476C224.036 259.863 228.469 263.808 225.052 267.587C222.874 269.979 222.396 269.979 220.169 267.508ZM202.095 258.232C200.299 256.318 199.996 255.371 200.767 254.141C202.642 251.172 204.751 250.45 207.388 251.866C211.079 253.838 211.44 255.977 208.491 258.515C205.279 261.279 204.947 261.259 202.095 258.232ZM788.559 254.795L784.887 250.743L788.1 247.423C789.867 245.607 792.064 244.113 792.992 244.113C794.554 244.113 799.719 249.268 799.719 250.821C799.719 251.212 798.03 253.174 795.97 255.186L792.22 258.847L788.559 254.795ZM557.561 250.948C555.208 248.595 555.12 247.198 557.131 244.328C559.026 241.623 561.437 241.564 564.21 244.152C566.935 246.681 566.905 248.136 564.093 250.782C561.291 253.409 560.051 253.438 557.561 250.948ZM622.006 250.948C620.932 249.874 620.053 248.341 620.053 247.53C620.053 246.72 620.932 245.187 622.006 244.113C625.024 241.096 627.523 241.672 629.759 245.909C630.804 247.901 630.667 248.517 628.754 250.548C626.068 253.409 624.555 253.496 622.006 250.948ZM191.149 244.806C189.138 243.088 187.488 241.213 187.488 240.646C187.488 239.094 193.718 233.372 195.397 233.372C197.086 233.372 203.111 239.26 203.111 240.9C203.111 241.847 196.11 248.087 195.163 247.979C194.967 247.96 193.161 246.534 191.149 244.806ZM213.364 230.345C190.759 225.267 177.694 212.476 175.341 193.093L174.657 187.479H187.839H201.021L202.642 193.054C206.06 204.801 215.141 209.586 232.482 208.746C248.086 207.994 255.839 202.555 255.839 192.351C255.839 183.612 250.996 180.273 231.682 175.713C200.103 168.262 192.673 165.46 185.886 158.478C179.979 152.405 177.518 145.296 177.479 134.263C177.44 119.997 183.025 109.246 194.469 101.61C201.666 96.8061 207.573 94.9118 219.711 93.5057C251.113 89.8929 278.083 108.338 278.278 133.56L278.297 136.762L265.535 136.489L252.773 136.215L250.967 130.845C247.754 121.325 239.044 116.198 226.057 116.198C211.811 116.198 203.111 122.174 203.111 131.968C203.111 137.622 206.079 141.586 212.124 144.008C214.408 144.916 225.13 147.806 235.968 150.433C257.88 155.735 262.186 157.199 268.435 161.427C274.538 165.558 277.985 169.649 280.104 175.273C285.865 190.584 282.203 206.988 270.525 218.12C260.243 227.923 249.219 231.478 229.563 231.321C222.806 231.263 215.512 230.833 213.364 230.345ZM347.049 230.101C340.067 228.324 335.156 225.004 331.885 219.848L329.073 215.415V222.533V229.661L316.623 229.29C301.459 228.831 296.899 227.045 293.872 220.375C292.173 216.655 292.007 213.677 291.987 187.284L291.968 158.283L285.865 157.99L279.762 157.697V149.886V142.074L285.865 141.781L291.968 141.488V129.302V117.116L303.441 117.39L314.914 117.663L315.187 129.624L315.461 141.586H322.267H329.073V149.886V158.186H322.237H315.402V183.866C315.402 202.536 315.725 209.869 316.574 210.718C317.218 211.363 320.079 211.89 322.921 211.89H328.096V205.231C328.096 196.511 330.264 190.418 335.078 185.604C340.175 180.517 346.902 178.076 362.545 175.683C376.557 173.535 380.502 172.022 381.4 168.419C383.08 161.74 379.086 158.127 369.322 157.502C360.807 156.965 356.696 158.928 354.05 164.777L352.175 168.926H341.473H330.772L331.279 164.445C332.48 153.772 340.497 144.203 350.837 141.078C367.037 136.196 391.018 139.926 399.084 148.577C404.357 154.241 404.659 156.311 405.216 190.252C405.714 221.528 405.743 221.85 407.921 223.607C409.131 224.584 410.118 226.088 410.118 226.937C410.118 228.275 408.37 228.49 397.404 228.49H384.681L383.734 225.98C383.207 224.603 382.777 222.377 382.777 221.039V218.598L378.559 222.055C369.322 229.622 357.263 232.698 347.049 230.101ZM372.017 211.646C379.115 208.014 381.732 202.643 381.781 191.551C381.791 187.752 381.469 186.473 380.58 186.844C378.022 187.909 372.251 189.412 364.947 190.926C356.11 192.761 351.912 195.681 350.974 200.661C350.125 205.211 352.117 210.63 355.271 212.349C359.284 214.526 367.017 214.204 372.017 211.646ZM527.574 230.062C513.923 225.59 504.608 214.673 501.357 199.323C497.617 181.669 501.962 160.715 511.56 150.081C523.864 136.469 545.951 134.927 557.873 146.849L561.428 150.403L561.691 130.611L561.955 110.828L573.428 110.554L584.901 110.281L585.067 167.432C585.155 198.864 585.263 225.355 585.311 226.293C585.38 227.816 584.12 228.031 573.916 228.275L562.443 228.548V223.012V217.475L558.576 221.869C556.252 224.506 552.698 227.132 549.7 228.421C543.402 231.126 533.14 231.888 527.574 230.062ZM551.741 209.429C558.977 205.69 563.127 194.783 562.17 182.05C561.056 167.296 554.124 159.142 542.719 159.182C532.447 159.211 526.549 165.392 524.235 178.564C522.389 189.012 525.553 202.389 531.031 207.35C536.001 211.841 545.267 212.779 551.741 209.429ZM415.234 184.794L415.488 141.098L426.473 140.824L437.458 140.541L437.478 146.683L437.497 152.815L441.012 148.626C442.946 146.322 446.783 143.265 449.537 141.85C453.892 139.604 455.766 139.252 463.842 139.203C472.444 139.145 473.626 139.389 479.699 142.377C483.41 144.203 487.325 146.995 488.702 148.792C493.652 155.285 493.936 157.58 494.141 192.527C494.238 210.425 494.268 225.843 494.209 226.781C494.102 228.304 492.842 228.49 482.375 228.49H470.657L470.647 199.44C470.647 183.222 470.218 168.848 469.681 166.905C468.118 161.3 464.759 158.869 457.895 158.371C449.81 157.785 445.035 159.992 441.549 165.929L438.923 170.391L438.63 199.44L438.327 228.49H426.649H414.98L415.234 184.794ZM600.446 228.08C600.222 227.855 600.153 198.2 600.29 162.169L600.554 96.6694H648.38H696.216V108.387V120.104H661.523H626.84L627.103 134.018L627.377 147.933L658.867 148.187L690.358 148.45V159.66V170.879H658.623H626.889V187.469V204.059L663.261 204.313L699.634 204.567L700.122 214.468L700.61 224.379L713.792 204.899C721.037 194.187 727.101 185.057 727.267 184.598C727.423 184.149 721.545 174.619 714.212 163.429C706.869 152.229 700.649 142.523 700.386 141.84C700.015 140.883 702.993 140.609 713.626 140.609H727.345L734.376 152.815C738.242 159.533 741.699 165.021 742.07 165.021C742.441 165.021 745.087 160.734 747.958 155.5C750.819 150.267 754.002 144.769 755.028 143.295L756.893 140.609H770.006C777.222 140.609 783.12 140.863 783.12 141.176C783.12 141.488 776.773 151.155 769.01 162.658L754.891 183.573L769.498 205.485C777.525 217.534 784.096 227.64 784.096 227.943C784.096 228.246 777.818 228.49 770.153 228.49H756.199L748.915 215.806C744.902 208.834 741.387 203.122 741.103 203.112C740.81 203.112 737.295 208.804 733.292 215.786L725.998 228.46L663.427 228.48C629.007 228.48 600.671 228.304 600.446 228.08ZM784.292 93.4472C782.573 91.6798 781.167 89.5609 781.167 88.7505C781.167 86.9245 786.147 82.0227 788.002 82.0227C789.906 82.0227 794.837 86.944 794.837 88.8481C794.837 90.2542 789.154 96.6694 787.904 96.6694C787.631 96.6694 786 95.2243 784.292 93.4472ZM195.495 82.7062C193.776 80.9389 192.37 79.0055 192.37 78.4196C192.37 77.2772 198.776 71.2818 199.996 71.2818C201.334 71.2818 207.993 77.2772 207.993 78.488C207.993 80.1675 201.871 85.9285 200.084 85.9285C199.274 85.9285 197.203 84.4834 195.495 82.7062ZM775.64 76.5546C773.873 73.8499 774.43 71.8677 777.515 69.9246C778.697 69.1727 779.605 69.3875 781.108 70.7448C783.598 72.9906 783.676 75.3634 781.333 77.4823C778.863 79.7183 777.574 79.5035 775.64 76.5546ZM787.153 66.0383C782.388 61.1854 782.495 59.9551 788.139 55.1998L791.254 52.5829L795.716 57.055L800.178 61.5174L795.775 65.9211L791.361 70.3347L787.153 66.0383ZM207.114 66.0188L204.917 63.6851L207.642 61.1561C210.024 58.9493 210.61 58.7931 212.299 59.916C215.99 62.3669 216.41 64.1342 213.803 66.2922C210.698 68.8798 209.77 68.8407 207.114 66.0188ZM761.13 66.3801C759.705 64.808 759.519 63.9487 760.32 62.6793C761.667 60.5409 764.548 60.5605 765.915 62.7282C766.755 64.0659 766.559 64.847 764.977 66.4191L762.976 68.4208L761.13 66.3801ZM809.113 63.441C807.17 61.7322 805.578 59.8379 805.578 59.2227C805.588 57.6409 811.271 51.7529 812.794 51.7529C814.356 51.7529 819.248 57.1429 819.248 58.881C819.248 59.584 817.764 61.5955 815.948 63.3531L812.657 66.5461L809.113 63.441ZM191.355 55.0924L187 50.6105L191.394 46.7926C193.815 44.6932 196.227 42.9844 196.764 42.9942C197.301 43.0137 199.713 44.742 202.135 46.8414L206.529 50.6495L202.174 55.1119C199.781 57.5628 197.35 59.5645 196.764 59.5645C196.178 59.5645 193.747 57.553 191.355 55.0924ZM771.813 56.5473C769.869 54.3991 770.504 52.3193 773.726 50.3566C776.099 48.9017 779.859 53.2176 778.091 55.3462C775.689 58.2365 773.687 58.6173 771.813 56.5473ZM225.052 55.6196C223.294 53.6863 223.304 53.5789 225.354 51.5381C227.395 49.4876 227.503 49.4778 229.436 51.2354C231.936 53.491 231.965 55.2974 229.543 56.5961C227.073 57.9241 227.141 57.9338 225.052 55.6196ZM168.115 52.4071C164.453 48.6283 164.688 47.1343 169.531 43.4434L172.88 40.8851L176.766 43.9609C178.905 45.6501 180.653 47.5737 180.653 48.2279C180.653 49.8977 174.521 55.6587 172.743 55.6587C171.933 55.6587 169.853 54.194 168.115 52.4071ZM747.431 50.6886C746.425 49.0677 748.681 47.1929 750.028 48.5404C751.161 49.6731 750.448 51.7529 748.944 51.7529C748.466 51.7529 747.792 51.2745 747.431 50.6886ZM795.325 48.8236L792.513 45.8845L794.505 43.209C797.727 38.8931 799.495 39.0884 803.528 44.2245C804.748 45.7673 804.582 46.2946 802.131 48.8626C800.598 50.4542 799.075 51.7529 798.743 51.7529C798.411 51.7529 796.868 50.4347 795.325 48.8236ZM212.416 45.9333C210.454 43.7558 210.913 41.6076 213.666 40.1332C215.16 39.3325 215.981 39.6157 217.787 41.5295C219.964 43.8535 219.984 43.9804 218.256 45.8845C216.02 48.3451 214.623 48.3646 212.416 45.9333ZM780.972 42.7989C778.062 39.4106 778.277 38.2389 782.554 34.2355L785.092 31.8627L788.5 35.1631C790.375 36.9793 791.908 38.9029 791.908 39.4399C791.908 41.0315 786.791 45.8942 785.131 45.8845C784.292 45.8747 782.417 44.4882 780.972 42.7989ZM810.177 41.2268C807.648 38.649 805.578 36.2274 805.578 35.8368C805.578 34.5382 814.063 26.3653 815.411 26.3653C816.993 26.3653 825.107 34.1281 825.107 35.6416C825.107 36.6668 816.251 45.8942 815.274 45.8942C815.001 45.8942 812.706 43.7949 810.177 41.2268ZM764.548 42.4572L762.224 39.9867L764.392 37.8288C766.061 36.1493 766.911 35.8954 768.18 36.6961C771.344 38.6978 771.949 40.7484 769.987 42.9063C767.682 45.4646 767.35 45.4353 764.548 42.4572ZM184.383 38.0534L181.424 35.1045L184.705 32.2142C186.502 30.6226 188.22 29.3142 188.513 29.3142C188.816 29.3044 190.495 30.7789 192.263 32.595L195.465 35.9052L192.116 38.4537C190.271 39.8598 188.445 41.012 188.054 41.012C187.664 41.012 186.004 39.684 184.383 38.0534ZM241.866 40.3871C240.958 39.479 242.061 38.0827 243.692 38.0827C244.463 38.0827 245.098 38.7467 245.098 39.5473C245.098 41.0218 243.038 41.5588 241.866 40.3871ZM747.509 37.1453C744.091 33.3664 748.524 29.4216 752.137 33.0344C754.139 35.0264 754.149 35.1338 752.391 37.0672C750.165 39.5376 749.686 39.5376 747.509 37.1453ZM833.387 36.1103L830.556 33.1516L834.159 29.5583L837.752 25.9552L840.711 28.7869C844.343 32.2728 844.382 33.425 840.984 36.5789C837.576 39.7426 836.824 39.6938 833.387 36.1103ZM199.4 32.9075C197.682 31.1401 196.276 29.197 196.276 28.6014C196.276 27.2344 201.881 22.4595 203.482 22.4595C204.146 22.4595 206.167 24.0023 207.993 25.8771L211.303 29.2947L207.993 32.7122C206.167 34.5968 204.195 36.1298 203.599 36.1298C203.004 36.1298 201.109 34.6846 199.4 32.9075ZM163.809 30.7886C158.78 26.1114 158.419 25.2815 160.636 23.436C162.374 21.9908 162.549 20.5066 160.987 20.5066C159.522 20.5066 149.406 11.8553 149.406 10.6055C149.406 9.39469 159.308 0.0891546 160.655 0.0403323C162.071 -0.0182545 171.865 8.72094 171.865 10.0391C171.865 10.6445 170.439 12.6365 168.691 14.4722C166.66 16.6106 166.27 17.3625 167.607 16.552C169.453 15.4389 170.136 15.6342 173.466 18.2803C175.536 19.9208 178.104 22.235 179.168 23.4067L181.102 25.5451L176.063 30.3492C173.3 32.9954 170.449 35.1436 169.736 35.124C169.033 35.1143 166.358 33.1614 163.809 30.7886ZM220.326 32.3607C218.422 30.2613 219.066 27.7519 221.898 26.2384C223.509 25.3791 224.31 25.633 226.35 27.6835L228.84 30.1735L226.477 32.1361C223.509 34.6065 222.396 34.6456 220.326 32.3607ZM818.682 26.3946C816.036 23.641 813.722 20.9265 813.526 20.3699C813.028 18.9541 821.25 10.7422 823.154 10.7422C823.994 10.7422 826.865 12.9489 829.511 15.6342L834.334 20.5359L828.905 25.965L823.476 31.394L818.682 26.3946ZM770.953 27.3808C768.268 24.5784 768.239 24.432 769.85 21.9615C770.768 20.5652 772.125 19.1884 772.877 18.9053C774.39 18.3194 778.824 21.2194 779.693 23.3481C780.2 24.5979 775.806 30.2711 774.332 30.2711C774 30.2711 772.477 28.9724 770.953 27.3808ZM140.589 25.8478L137.24 22.3912L140.345 19.5009C142.044 17.8995 144.036 16.6009 144.768 16.6009C145.501 16.6009 147.59 18.1436 149.416 20.0282L152.736 23.4457L149.358 26.336C147.502 27.9179 145.53 29.2361 144.964 29.2556C144.397 29.2751 142.425 27.7421 140.589 25.8478ZM240.382 27.0293L238.253 24.7639L240.685 22.4791C243.057 20.2528 243.184 20.2332 245.088 21.9615C247.52 24.1585 247.569 25.5939 245.264 27.6835C242.989 29.7438 242.921 29.7341 240.382 27.0293ZM793.998 25.0373L790.824 21.7663L793.402 18.6904C796.663 14.8237 798.069 14.8433 801.624 18.7979L804.475 21.9713L801.418 25.1448C799.739 26.8926 798.089 28.3182 797.767 28.3182C797.444 28.3182 795.745 26.8438 793.998 25.0373ZM211.85 17.0403L208.491 13.5739L211.792 10.6934C213.608 9.11152 215.395 7.81284 215.756 7.81284C216.771 7.81284 221.663 13.1638 221.663 14.2769C221.663 15.2534 216.635 20.5066 215.697 20.5066C215.434 20.5066 213.696 18.9443 211.85 17.0403ZM185.232 14.8433C183.787 13.3298 182.606 11.6893 182.606 11.1816C182.606 10.6738 184.148 9.02364 186.033 7.51991L189.45 4.79562L192.868 7.39297C194.743 8.82835 196.276 10.4688 196.276 11.0449C196.276 12.7146 191.189 17.5773 189.441 17.5773C188.572 17.5773 186.668 16.347 185.232 14.8433Z" fill="#626981"/>
</svg>
